<svg width="14" height="14" viewBox="0 0 14 14" fill="none" xmlns="http://www.w3.org/2000/svg">
<path d="M10.0771 11.231C10.3977 11.231 10.6701 11.1188 10.8945 10.8945C11.1188 10.6701 11.231 10.3977 11.231 10.0771C11.231 9.75664 11.1188 9.4842 10.8945 9.25984C10.6701 9.03548 10.3977 8.9233 10.0771 8.9233C9.75664 8.9233 9.4842 9.03548 9.25984 9.25984C9.03548 9.4842 8.9233 9.75664 8.9233 10.0771C8.9233 10.3977 9.03548 10.6701 9.25984 10.8945C9.4842 11.1188 9.75664 11.231 10.0771 11.231ZM7.00023 8.15407C7.32074 8.15407 7.59317 8.04189 7.81753 7.81753C8.04189 7.59317 8.15407 7.32074 8.15407 7.00023C8.15407 6.67971 8.04189 6.40728 7.81753 6.18292C7.59317 5.95856 7.32074 5.84638 7.00023 5.84638C6.67971 5.84638 6.40728 5.95856 6.18292 6.18292C5.95856 6.40728 5.84638 6.67971 5.84638 7.00023C5.84638 7.32074 5.95856 7.59317 6.18292 7.81753C6.40728 8.04189 6.67971 8.15407 7.00023 8.15407ZM3.9233 5.07715C4.24382 5.07715 4.51625 4.96497 4.74061 4.74061C4.96497 4.51625 5.07715 4.24382 5.07715 3.9233C5.07715 3.60279 4.96497 3.33035 4.74061 3.10599C4.51625 2.88164 4.24382 2.76946 3.9233 2.76946C3.60279 2.76946 3.33035 2.88164 3.10599 3.10599C2.88164 3.33035 2.76946 3.60279 2.76946 3.9233C2.76946 4.24382 2.88164 4.51625 3.10599 4.74061C3.33035 4.96497 3.60279 5.07715 3.9233 5.07715ZM1.61561 13.9233C1.19253 13.9233 0.830354 13.7727 0.529072 13.4714C0.227789 13.1701 0.0771484 12.8079 0.0771484 12.3848V1.61561C0.0771484 1.19253 0.227789 0.830354 0.529072 0.529072C0.830354 0.227789 1.19253 0.0771484 1.61561 0.0771484H12.3848C12.8079 0.0771484 13.1701 0.227789 13.4714 0.529072C13.7727 0.830354 13.9233 1.19253 13.9233 1.61561V12.3848C13.9233 12.8079 13.7727 13.1701 13.4714 13.4714C13.1701 13.7727 12.8079 13.9233 12.3848 13.9233H1.61561ZM1.61561 12.3848H12.3848V1.61561H1.61561V12.3848Z" fill="#FAF9F7"/>
</svg>
