<svg width="21" height="19" viewBox="0 0 21 19" fill="none" xmlns="http://www.w3.org/2000/svg">
<path d="M10.5 19L9.05 17.7C7.36667 16.1834 5.975 14.875 4.875 13.775C3.775 12.675 2.9 11.6875 2.25 10.8125C1.6 9.93752 1.14583 9.13336 0.8875 8.40002C0.629167 7.66669 0.5 6.91669 0.5 6.15002C0.5 4.58336 1.025 3.27502 2.075 2.22502C3.125 1.17502 4.43333 0.650024 6 0.650024C6.86667 0.650024 7.69167 0.833358 8.475 1.20002C9.25833 1.56669 9.93333 2.08336 10.5 2.75002C11.0667 2.08336 11.7417 1.56669 12.525 1.20002C13.3083 0.833358 14.1333 0.650024 15 0.650024C16.5667 0.650024 17.875 1.17502 18.925 2.22502C19.975 3.27502 20.5 4.58336 20.5 6.15002C20.5 6.91669 20.3708 7.66669 20.1125 8.40002C19.8542 9.13336 19.4 9.93752 18.75 10.8125C18.1 11.6875 17.225 12.675 16.125 13.775C15.025 14.875 13.6333 16.1834 11.95 17.7L10.5 19ZM10.5 16.3C12.1 14.8667 13.4167 13.6375 14.45 12.6125C15.4833 11.5875 16.3 10.6959 16.9 9.93752C17.5 9.17919 17.9167 8.50419 18.15 7.91252C18.3833 7.32086 18.5 6.73336 18.5 6.15002C18.5 5.15002 18.1667 4.31669 17.5 3.65002C16.8333 2.98336 16 2.65002 15 2.65002C14.2167 2.65002 13.4917 2.87086 12.825 3.31252C12.1583 3.75419 11.7 4.31669 11.45 5.00002H9.55C9.3 4.31669 8.84167 3.75419 8.175 3.31252C7.50833 2.87086 6.78333 2.65002 6 2.65002C5 2.65002 4.16667 2.98336 3.5 3.65002C2.83333 4.31669 2.5 5.15002 2.5 6.15002C2.5 6.73336 2.61667 7.32086 2.85 7.91252C3.08333 8.50419 3.5 9.17919 4.1 9.93752C4.7 10.6959 5.51667 11.5875 6.55 12.6125C7.58333 13.6375 8.9 14.8667 10.5 16.3Z" fill="#232323"/>
</svg>
