<svg width="580" height="507" viewBox="0 0 580 507" fill="none" xmlns="http://www.w3.org/2000/svg">
<rect x="10.5001" y="349.5" width="289" height="52" rx="2.5" fill="#5C08EC"/>
<rect x="10.5001" y="349.5" width="289" height="52" rx="2.5" stroke="#3B00A1" stroke-width="3"/>
<path d="M77.1947 382.24C76.2081 382.24 75.3414 382.06 74.5947 381.7C73.8614 381.34 73.2814 380.827 72.8547 380.16C72.4414 379.493 72.2281 378.7 72.2147 377.78H74.4547C74.4681 378.487 74.7081 379.093 75.1747 379.6C75.6547 380.093 76.3214 380.34 77.1747 380.34C77.9614 380.34 78.5747 380.16 79.0147 379.8C79.4547 379.427 79.6747 378.947 79.6747 378.36C79.6747 377.867 79.5414 377.46 79.2747 377.14C79.0214 376.807 78.6214 376.513 78.0747 376.26C77.5281 375.993 76.8214 375.72 75.9547 375.44C74.7947 375.067 73.9414 374.553 73.3947 373.9C72.8481 373.233 72.5747 372.42 72.5747 371.46C72.5747 370.353 72.9747 369.46 73.7747 368.78C74.5747 368.1 75.6747 367.76 77.0747 367.76C78.4347 367.76 79.5281 368.113 80.3547 368.82C81.1814 369.513 81.6081 370.48 81.6347 371.72H79.3747C79.3747 371.387 79.2814 371.067 79.0947 370.76C78.9081 370.44 78.6414 370.18 78.2947 369.98C77.9481 369.767 77.5214 369.66 77.0147 369.66C76.3881 369.647 75.8614 369.8 75.4347 370.12C75.0081 370.427 74.7947 370.847 74.7947 371.38C74.7947 372.033 75.0547 372.547 75.5747 372.92C76.0947 373.28 76.9414 373.653 78.1147 374.04C78.8481 374.28 79.4947 374.573 80.0547 374.92C80.6281 375.253 81.0747 375.687 81.3947 376.22C81.7281 376.74 81.8947 377.407 81.8947 378.22C81.8947 378.967 81.7081 379.647 81.3347 380.26C80.9614 380.86 80.4214 381.34 79.7147 381.7C79.0214 382.06 78.1814 382.24 77.1947 382.24ZM90.1269 382C89.1536 382 88.3803 381.767 87.8069 381.3C87.2336 380.82 86.9469 379.973 86.9469 378.76V373.88H84.4469V372.08H85.9269C86.6069 372.08 87.0069 371.747 87.1269 371.08L87.4269 369.48H89.0669V372.08H92.9869V373.88H89.0669V378.72C89.0669 379.24 89.1803 379.607 89.4069 379.82C89.6469 380.02 90.0536 380.12 90.6269 380.12H92.9469V382H90.1269ZM100.139 382.24C99.3525 382.24 98.6925 382.107 98.1591 381.84C97.6258 381.56 97.2258 381.193 96.9591 380.74C96.6925 380.273 96.5591 379.767 96.5591 379.22C96.5591 378.247 96.9125 377.487 97.6191 376.94C98.3391 376.393 99.3525 376.12 100.659 376.12H103.219V375.9C103.219 374.407 102.526 373.66 101.139 373.66C100.566 373.66 100.079 373.787 99.6791 374.04C99.2925 374.28 99.0325 374.673 98.8991 375.22H96.7791C96.8858 374.18 97.3325 373.36 98.1191 372.76C98.9191 372.147 99.9258 371.84 101.139 371.84C102.606 371.84 103.672 372.2 104.339 372.92C105.006 373.64 105.339 374.633 105.339 375.9V382H103.539L103.359 380.54H103.219C102.926 381.007 102.559 381.407 102.119 381.74C101.679 382.073 101.019 382.24 100.139 382.24ZM100.539 380.46C101.406 380.46 102.052 380.2 102.479 379.68C102.919 379.147 103.159 378.473 103.199 377.66H100.879C100.119 377.66 99.5791 377.787 99.2591 378.04C98.9525 378.28 98.7991 378.62 98.7991 379.06C98.7991 379.5 98.9525 379.847 99.2591 380.1C99.5791 380.34 100.006 380.46 100.539 380.46ZM108.571 382V380.16H110.991V374.58C110.991 374.14 110.778 373.92 110.351 373.92H108.771V372.08H111.151C111.698 372.08 112.145 372.24 112.491 372.56C112.838 372.867 113.011 373.3 113.011 373.86V374.1H113.111C113.258 373.353 113.571 372.793 114.051 372.42C114.545 372.033 115.258 371.84 116.191 371.84H117.731V374.08H115.571C114.785 374.08 114.178 374.353 113.751 374.9C113.325 375.447 113.111 376.1 113.111 376.86V380.16H116.191V382H108.571ZM126.103 382C125.13 382 124.357 381.767 123.783 381.3C123.21 380.82 122.923 379.973 122.923 378.76V373.88H120.423V372.08H121.903C122.583 372.08 122.983 371.747 123.103 371.08L123.403 369.48H125.043V372.08H128.963V373.88H125.043V378.72C125.043 379.24 125.157 379.607 125.383 379.82C125.623 380.02 126.03 380.12 126.603 380.12H128.923V382H126.103ZM144.428 382V368H149.168C150.235 368 151.115 368.187 151.808 368.56C152.501 368.92 153.015 369.42 153.348 370.06C153.681 370.7 153.848 371.433 153.848 372.26C153.848 373.087 153.681 373.82 153.348 374.46C153.015 375.1 152.501 375.607 151.808 375.98C151.115 376.34 150.235 376.52 149.168 376.52H146.548V382H144.428ZM146.548 374.62H149.068C149.975 374.62 150.635 374.407 151.048 373.98C151.475 373.553 151.688 372.98 151.688 372.26C151.688 371.553 151.475 370.987 151.048 370.56C150.635 370.12 149.975 369.9 149.068 369.9H146.548V374.62ZM156.36 382V380.16H159.68V370.1C159.68 369.66 159.467 369.44 159.04 369.44H156.64V367.6H159.42C160.193 367.6 160.78 367.807 161.18 368.22C161.593 368.62 161.8 369.207 161.8 369.98V380.16H165.14V382H156.36ZM172.092 382.24C171.306 382.24 170.646 382.107 170.112 381.84C169.579 381.56 169.179 381.193 168.912 380.74C168.646 380.273 168.512 379.767 168.512 379.22C168.512 378.247 168.866 377.487 169.572 376.94C170.292 376.393 171.306 376.12 172.612 376.12H175.172V375.9C175.172 374.407 174.479 373.66 173.092 373.66C172.519 373.66 172.032 373.787 171.632 374.04C171.246 374.28 170.986 374.673 170.852 375.22H168.732C168.839 374.18 169.286 373.36 170.072 372.76C170.872 372.147 171.879 371.84 173.092 371.84C174.559 371.84 175.626 372.2 176.292 372.92C176.959 373.64 177.292 374.633 177.292 375.9V382H175.492L175.312 380.54H175.172C174.879 381.007 174.512 381.407 174.072 381.74C173.632 382.073 172.972 382.24 172.092 382.24ZM172.492 380.46C173.359 380.46 174.006 380.2 174.432 379.68C174.872 379.147 175.112 378.473 175.152 377.66H172.832C172.072 377.66 171.532 377.787 171.212 378.04C170.906 378.28 170.752 378.62 170.752 379.06C170.752 379.5 170.906 379.847 171.212 380.1C171.532 380.34 171.959 380.46 172.492 380.46ZM181.844 386.4L184.204 381.18H183.624L179.764 372.08H182.064L185.024 379.34L188.164 372.08H190.384L184.084 386.4H181.844ZM196.777 370.56C196.31 370.56 195.917 370.413 195.597 370.12C195.29 369.813 195.137 369.44 195.137 369C195.137 368.56 195.29 368.193 195.597 367.9C195.917 367.607 196.31 367.46 196.777 367.46C197.257 367.46 197.65 367.607 197.957 367.9C198.277 368.193 198.437 368.56 198.437 369C198.437 369.44 198.277 369.813 197.957 370.12C197.65 370.413 197.257 370.56 196.777 370.56ZM192.797 382V380.16H195.917V374.58C195.917 374.14 195.703 373.92 195.277 373.92H193.077V372.08H195.657C196.483 372.08 197.083 372.273 197.457 372.66C197.843 373.033 198.037 373.633 198.037 374.46V380.16H201.157V382H192.797ZM204.529 382V372.08H206.369L206.549 373.56H206.649C206.915 373.08 207.329 372.673 207.889 372.34C208.449 372.007 209.095 371.84 209.829 371.84C211.042 371.84 211.955 372.207 212.569 372.94C213.182 373.673 213.489 374.753 213.489 376.18V382H211.369V376.44C211.369 375.613 211.195 374.973 210.849 374.52C210.502 374.067 209.955 373.84 209.209 373.84C208.475 373.84 207.862 374.087 207.369 374.58C206.889 375.073 206.649 375.787 206.649 376.72V382H204.529ZM220.741 379.14C220.128 379.14 219.561 379.04 219.041 378.84L218.541 379.44C218.381 379.64 218.334 379.833 218.401 380.02C218.481 380.193 218.661 380.28 218.941 380.28H221.561C222.721 380.28 223.654 380.527 224.361 381.02C225.081 381.5 225.441 382.24 225.441 383.24C225.441 383.867 225.281 384.433 224.961 384.94C224.654 385.46 224.154 385.873 223.461 386.18C222.781 386.487 221.881 386.64 220.761 386.64C219.348 386.64 218.208 386.373 217.341 385.84C216.488 385.32 216.061 384.533 216.061 383.48C216.061 383.107 216.148 382.76 216.321 382.44C216.508 382.133 216.748 381.853 217.041 381.6C216.681 381.333 216.461 380.96 216.381 380.48C216.314 379.987 216.461 379.513 216.821 379.06L217.701 377.94C217.074 377.273 216.761 376.453 216.761 375.48C216.761 374.827 216.914 374.227 217.221 373.68C217.541 373.12 217.994 372.673 218.581 372.34C219.181 372.007 219.901 371.84 220.741 371.84C221.288 371.84 221.794 371.92 222.261 372.08H226.001V373.48L224.261 373.58V373.76C224.541 374.28 224.681 374.853 224.681 375.48C224.681 376.133 224.521 376.74 224.201 377.3C223.894 377.86 223.448 378.307 222.861 378.64C222.274 378.973 221.568 379.14 220.741 379.14ZM220.741 377.44C221.328 377.44 221.808 377.267 222.181 376.92C222.568 376.573 222.761 376.093 222.761 375.48C222.761 374.893 222.568 374.427 222.181 374.08C221.808 373.733 221.328 373.56 220.741 373.56C220.141 373.56 219.648 373.733 219.261 374.08C218.888 374.427 218.701 374.893 218.701 375.48C218.701 376.093 218.888 376.573 219.261 376.92C219.648 377.267 220.141 377.44 220.741 377.44ZM218.061 383.32C218.061 383.853 218.314 384.247 218.821 384.5C219.341 384.753 219.988 384.88 220.761 384.88C221.588 384.88 222.241 384.74 222.721 384.46C223.201 384.18 223.441 383.787 223.441 383.28C223.441 382.853 223.268 382.513 222.921 382.26C222.574 382.02 221.988 381.9 221.161 381.9H218.821C218.314 382.3 218.061 382.773 218.061 383.32ZM231.953 376.9L231.633 368H234.273L233.933 376.9H231.953ZM232.973 382.12C232.48 382.12 232.06 381.96 231.713 381.64C231.367 381.307 231.193 380.907 231.193 380.44C231.193 379.973 231.367 379.58 231.713 379.26C232.06 378.94 232.48 378.78 232.973 378.78C233.48 378.78 233.9 378.94 234.233 379.26C234.58 379.58 234.753 379.973 234.753 380.44C234.753 380.907 234.58 381.307 234.233 381.64C233.9 381.96 233.48 382.12 232.973 382.12Z" fill="white"/>
<rect x="0.500061" y="0.500015" width="309" height="317" rx="14.5" fill="white"/>
<rect x="0.500061" y="0.500015" width="309" height="317" rx="14.5" stroke="#A6A6A6"/>
<path d="M27.0881 29.24C26.6401 29.848 26.0587 30.344 25.3441 30.728C24.6294 31.1013 23.7707 31.288 22.7681 31.288C21.9041 31.288 21.1041 31.144 20.3681 30.856C19.6427 30.5573 19.0134 30.1467 18.4801 29.624C17.9574 29.0907 17.5467 28.4613 17.2481 27.736C16.9494 27 16.8001 26.1947 16.8001 25.32C16.8001 24.4347 16.9494 23.6293 17.2481 22.904C17.5574 22.168 17.9787 21.544 18.5121 21.032C19.0561 20.5093 19.6961 20.104 20.4321 19.816C21.1681 19.528 21.9681 19.384 22.8321 19.384C23.2161 19.384 23.6054 19.4213 24.0001 19.496C24.3947 19.5707 24.7734 19.6827 25.1361 19.832C25.4987 19.9813 25.8294 20.168 26.1281 20.392C26.4267 20.6053 26.6827 20.856 26.8961 21.144L25.6481 22.104C25.3707 21.72 24.9761 21.4053 24.4641 21.16C23.9627 20.904 23.4187 20.776 22.8321 20.776C22.1707 20.776 21.5734 20.8987 21.0401 21.144C20.5174 21.3787 20.0694 21.704 19.6961 22.12C19.3227 22.536 19.0347 23.0213 18.8321 23.576C18.6294 24.12 18.5281 24.7013 18.5281 25.32C18.5281 25.96 18.6241 26.5573 18.8161 27.112C19.0187 27.6667 19.3014 28.152 19.6641 28.568C20.0374 28.9733 20.4854 29.2933 21.0081 29.528C21.5414 29.7627 22.1334 29.88 22.7841 29.88C23.4241 29.88 24.0054 29.752 24.5281 29.496C25.0507 29.24 25.4827 28.8667 25.8241 28.376L27.0881 29.24ZM36.1167 27.192C36.1167 27.7787 36.01 28.3173 35.7967 28.808C35.594 29.2987 35.306 29.7253 34.9327 30.088C34.57 30.44 34.138 30.7173 33.6367 30.92C33.1354 31.112 32.5967 31.208 32.0207 31.208C31.4447 31.208 30.906 31.112 30.4047 30.92C29.9034 30.7173 29.4714 30.44 29.1087 30.088C28.746 29.7253 28.458 29.2987 28.2447 28.808C28.042 28.3173 27.9407 27.7787 27.9407 27.192C27.9407 26.6053 28.042 26.072 28.2447 25.592C28.458 25.1013 28.746 24.68 29.1087 24.328C29.4714 23.976 29.9034 23.704 30.4047 23.512C30.906 23.3093 31.4447 23.208 32.0207 23.208C32.5967 23.208 33.1354 23.3093 33.6367 23.512C34.138 23.704 34.57 23.976 34.9327 24.328C35.306 24.68 35.594 25.1013 35.7967 25.592C36.01 26.072 36.1167 26.6053 36.1167 27.192ZM34.5487 27.192C34.5487 26.8293 34.49 26.4827 34.3727 26.152C34.266 25.8213 34.106 25.5333 33.8927 25.288C33.6794 25.032 33.4127 24.8293 33.0927 24.68C32.7834 24.5307 32.426 24.456 32.0207 24.456C31.6154 24.456 31.2527 24.5307 30.9327 24.68C30.6234 24.8293 30.362 25.032 30.1487 25.288C29.9354 25.5333 29.77 25.8213 29.6527 26.152C29.546 26.4827 29.4927 26.8293 29.4927 27.192C29.4927 27.5547 29.546 27.9013 29.6527 28.232C29.77 28.5627 29.9354 28.856 30.1487 29.112C30.362 29.368 30.6234 29.5707 30.9327 29.72C31.2527 29.8693 31.6154 29.944 32.0207 29.944C32.426 29.944 32.7834 29.8693 33.0927 29.72C33.4127 29.5707 33.6794 29.368 33.8927 29.112C34.106 28.856 34.266 28.5627 34.3727 28.232C34.49 27.9013 34.5487 27.5547 34.5487 27.192ZM39.5623 23.416C39.5836 23.608 39.5996 23.8267 39.6103 24.072C39.621 24.3067 39.6263 24.504 39.6263 24.664H39.6743C39.7703 24.4613 39.8983 24.2747 40.0583 24.104C40.229 23.9227 40.421 23.768 40.6343 23.64C40.8476 23.5013 41.0823 23.3947 41.3383 23.32C41.5943 23.2453 41.861 23.208 42.1383 23.208C42.629 23.208 43.0503 23.2933 43.4023 23.464C43.7543 23.624 44.0476 23.8427 44.2823 24.12C44.517 24.3973 44.6876 24.7227 44.7943 25.096C44.9116 25.4693 44.9703 25.8693 44.9703 26.296V31H43.4663V26.792C43.4663 26.4827 43.4396 26.1893 43.3863 25.912C43.3436 25.6347 43.2583 25.3893 43.1303 25.176C43.0023 24.9627 42.8263 24.792 42.6023 24.664C42.3783 24.536 42.0903 24.472 41.7383 24.472C41.141 24.472 40.6503 24.7013 40.2663 25.16C39.893 25.608 39.7063 26.2107 39.7063 26.968V31H38.2023V25.048C38.2023 24.8453 38.197 24.584 38.1863 24.264C38.1756 23.944 38.1596 23.6613 38.1383 23.416H39.5623ZM52.8268 25.336C52.6668 25.0907 52.4268 24.888 52.1068 24.728C51.7868 24.5573 51.4455 24.472 51.0828 24.472C50.6881 24.472 50.3361 24.5467 50.0268 24.696C49.7281 24.8453 49.4721 25.048 49.2588 25.304C49.0455 25.5493 48.8801 25.8373 48.7628 26.168C48.6561 26.4987 48.6028 26.8453 48.6028 27.208C48.6028 27.5707 48.6561 27.9173 48.7628 28.248C48.8801 28.5787 49.0455 28.872 49.2588 29.128C49.4721 29.3733 49.7335 29.5707 50.0428 29.72C50.3521 29.8693 50.7041 29.944 51.0988 29.944C51.4828 29.944 51.8295 29.8693 52.1388 29.72C52.4588 29.5707 52.7201 29.368 52.9228 29.112L53.9308 30.024C53.6108 30.3973 53.2108 30.6907 52.7308 30.904C52.2508 31.1067 51.7068 31.208 51.0988 31.208C50.5121 31.208 49.9681 31.112 49.4668 30.92C48.9761 30.728 48.5495 30.4613 48.1868 30.12C47.8241 29.768 47.5361 29.3467 47.3228 28.856C47.1201 28.3653 47.0188 27.816 47.0188 27.208C47.0188 26.6107 47.1201 26.0667 47.3228 25.576C47.5255 25.0853 47.8081 24.664 48.1708 24.312C48.5335 23.96 48.9601 23.688 49.4508 23.496C49.9521 23.304 50.4908 23.208 51.0668 23.208C51.6001 23.208 52.1281 23.3147 52.6508 23.528C53.1841 23.7413 53.6055 24.0507 53.9148 24.456L52.8268 25.336ZM55.4211 25.048C55.4211 24.8453 55.4157 24.584 55.4051 24.264C55.3944 23.944 55.3784 23.6613 55.3571 23.416H56.7811C56.8024 23.608 56.8184 23.832 56.8291 24.088C56.8397 24.3333 56.8451 24.536 56.8451 24.696H56.8931C57.1064 24.248 57.4157 23.8907 57.8211 23.624C58.2371 23.3467 58.7011 23.208 59.2131 23.208C59.4477 23.208 59.6451 23.2293 59.8051 23.272L59.7411 24.664C59.5277 24.6107 59.2984 24.584 59.0531 24.584C58.6904 24.584 58.3757 24.6533 58.1091 24.792C57.8424 24.92 57.6184 25.096 57.4371 25.32C57.2664 25.544 57.1384 25.8053 57.0531 26.104C56.9677 26.392 56.9251 26.696 56.9251 27.016V31H55.4211V25.048ZM66.4887 26.536C66.478 26.2373 66.4247 25.96 66.3287 25.704C66.2434 25.4373 66.11 25.208 65.9287 25.016C65.758 24.824 65.5394 24.6747 65.2727 24.568C65.0167 24.4507 64.7127 24.392 64.3607 24.392C64.0407 24.392 63.7367 24.4507 63.4487 24.568C63.1714 24.6747 62.926 24.824 62.7127 25.016C62.51 25.208 62.3394 25.4373 62.2007 25.704C62.0727 25.96 61.998 26.2373 61.9767 26.536H66.4887ZM68.0087 27.144C68.0087 27.2293 68.0087 27.3147 68.0087 27.4C68.0087 27.4853 68.0034 27.5707 67.9927 27.656H61.9767C61.9874 27.976 62.0567 28.28 62.1847 28.568C62.3234 28.8453 62.5047 29.0907 62.7287 29.304C62.9527 29.5067 63.2087 29.6667 63.4967 29.784C63.7954 29.9013 64.11 29.96 64.4407 29.96C64.9527 29.96 65.3954 29.848 65.7687 29.624C66.142 29.4 66.4354 29.128 66.6487 28.808L67.7047 29.656C67.2994 30.1893 66.8194 30.584 66.2647 30.84C65.7207 31.0853 65.1127 31.208 64.4407 31.208C63.8647 31.208 63.3314 31.112 62.8407 30.92C62.35 30.728 61.9287 30.4613 61.5767 30.12C61.2247 29.768 60.9474 29.3467 60.7447 28.856C60.542 28.3653 60.4407 27.8213 60.4407 27.224C60.4407 26.6373 60.5367 26.0987 60.7287 25.608C60.9314 25.1067 61.2087 24.68 61.5607 24.328C61.9127 23.976 62.3287 23.704 62.8087 23.512C63.2887 23.3093 63.806 23.208 64.3607 23.208C64.9154 23.208 65.4167 23.2987 65.8647 23.48C66.3234 23.6613 66.7074 23.9227 67.0167 24.264C67.3367 24.6053 67.582 25.0213 67.7527 25.512C67.9234 25.992 68.0087 26.536 68.0087 27.144ZM73.8206 24.648H71.8046V28.6C71.8046 29.0587 71.8899 29.3893 72.0606 29.592C72.2312 29.784 72.5032 29.88 72.8766 29.88C73.0152 29.88 73.1646 29.864 73.3246 29.832C73.4846 29.8 73.6286 29.752 73.7566 29.688L73.8046 30.92C73.6232 30.984 73.4206 31.032 73.1966 31.064C72.9832 31.1067 72.7592 31.128 72.5246 31.128C71.8099 31.128 71.2606 30.9307 70.8766 30.536C70.5032 30.1413 70.3166 29.5493 70.3166 28.76V24.648H68.8606V23.416H70.3166V21.24H71.8046V23.416H73.8206V24.648ZM80.9262 26.536C80.9155 26.2373 80.8622 25.96 80.7662 25.704C80.6809 25.4373 80.5475 25.208 80.3662 25.016C80.1955 24.824 79.9769 24.6747 79.7102 24.568C79.4542 24.4507 79.1502 24.392 78.7982 24.392C78.4782 24.392 78.1742 24.4507 77.8862 24.568C77.6089 24.6747 77.3635 24.824 77.1502 25.016C76.9475 25.208 76.7769 25.4373 76.6382 25.704C76.5102 25.96 76.4355 26.2373 76.4142 26.536H80.9262ZM82.4462 27.144C82.4462 27.2293 82.4462 27.3147 82.4462 27.4C82.4462 27.4853 82.4409 27.5707 82.4302 27.656H76.4142C76.4249 27.976 76.4942 28.28 76.6222 28.568C76.7609 28.8453 76.9422 29.0907 77.1662 29.304C77.3902 29.5067 77.6462 29.6667 77.9342 29.784C78.2329 29.9013 78.5475 29.96 78.8782 29.96C79.3902 29.96 79.8329 29.848 80.2062 29.624C80.5795 29.4 80.8729 29.128 81.0862 28.808L82.1422 29.656C81.7369 30.1893 81.2569 30.584 80.7022 30.84C80.1582 31.0853 79.5502 31.208 78.8782 31.208C78.3022 31.208 77.7689 31.112 77.2782 30.92C76.7875 30.728 76.3662 30.4613 76.0142 30.12C75.6622 29.768 75.3849 29.3467 75.1822 28.856C74.9795 28.3653 74.8782 27.8213 74.8782 27.224C74.8782 26.6373 74.9742 26.0987 75.1662 25.608C75.3689 25.1067 75.6462 24.68 75.9982 24.328C76.3502 23.976 76.7662 23.704 77.2462 23.512C77.7262 23.3093 78.2435 23.208 78.7982 23.208C79.3529 23.208 79.8542 23.2987 80.3022 23.48C80.7609 23.6613 81.1449 23.9227 81.4542 24.264C81.7742 24.6053 82.0195 25.0213 82.1902 25.512C82.3609 25.992 82.4462 26.536 82.4462 27.144Z" fill="black"/>
<rect x="17.0001" y="53" width="276" height="56" rx="9" fill="#E1FF22"/>
<rect x="17.0001" y="53" width="276" height="56" rx="9" stroke="#C4D751" stroke-width="2"/>
<path d="M33.2801 86V74.8H40.4321V76.32H34.9761V79.584H39.9521V81.088H34.9761V84.48H40.4321V86H33.2801ZM42.6818 86V84.528H45.3378V76.48C45.3378 76.128 45.1671 75.952 44.8258 75.952H42.9058V74.48H45.1298C45.7485 74.48 46.2178 74.6453 46.5378 74.976C46.8685 75.296 47.0338 75.7653 47.0338 76.384V84.528H49.7058V86H42.6818ZM56.0836 86.192C55.3156 86.192 54.6382 86.0213 54.0516 85.68C53.4649 85.328 53.0062 84.8427 52.6756 84.224C52.3449 83.6053 52.1796 82.8853 52.1796 82.064C52.1796 81.232 52.3396 80.5013 52.6596 79.872C52.9902 79.2427 53.4489 78.752 54.0356 78.4C54.6329 78.048 55.3209 77.872 56.0996 77.872C56.8676 77.872 57.5289 78.048 58.0836 78.4C58.6382 78.7413 59.0649 79.2 59.3636 79.776C59.6729 80.352 59.8276 80.9867 59.8276 81.68C59.8276 81.7867 59.8276 81.904 59.8276 82.032C59.8276 82.1493 59.8222 82.2827 59.8116 82.432H53.8436C53.8969 83.168 54.1369 83.728 54.5636 84.112C54.9902 84.4853 55.4916 84.672 56.0676 84.672C56.5689 84.672 56.9636 84.5707 57.2516 84.368C57.5502 84.1547 57.7689 83.8667 57.9076 83.504H59.6196C59.4276 84.2613 59.0276 84.9013 58.4196 85.424C57.8116 85.936 57.0329 86.192 56.0836 86.192ZM56.0836 79.344C55.5609 79.344 55.0969 79.504 54.6916 79.824C54.2862 80.1333 54.0249 80.5707 53.9076 81.136H58.1316C58.0889 80.6027 57.8809 80.1707 57.5076 79.84C57.1342 79.5093 56.6596 79.344 56.0836 79.344ZM65.6933 86.192C64.9573 86.192 64.296 86.0213 63.7093 85.68C63.1333 85.3387 62.68 84.8587 62.3493 84.24C62.0186 83.6107 61.8533 82.8747 61.8533 82.032C61.8533 81.1893 62.0186 80.4587 62.3493 79.84C62.6906 79.2213 63.1493 78.7413 63.7253 78.4C64.3013 78.048 64.9573 77.872 65.6933 77.872C66.7066 77.872 67.5226 78.128 68.1413 78.64C68.7706 79.1413 69.1706 79.8347 69.3413 80.72H67.5653C67.4586 80.336 67.24 80.032 66.9093 79.808C66.5893 79.584 66.1786 79.472 65.6773 79.472C65.3146 79.472 64.968 79.568 64.6373 79.76C64.3173 79.952 64.056 80.24 63.8533 80.624C63.6613 80.9973 63.5653 81.4667 63.5653 82.032C63.5653 82.5867 63.6613 83.056 63.8533 83.44C64.056 83.824 64.3173 84.1173 64.6373 84.32C64.968 84.512 65.3146 84.608 65.6773 84.608C66.1893 84.608 66.6 84.496 66.9093 84.272C67.2186 84.048 67.4373 83.7387 67.5653 83.344H69.3413C69.128 84.2187 68.712 84.912 68.0933 85.424C67.4746 85.936 66.6746 86.192 65.6933 86.192ZM76.0391 86C75.2604 86 74.6417 85.8133 74.1831 85.44C73.7244 85.056 73.4951 84.3787 73.4951 83.408V79.504H71.4951V78.064H72.6791C73.2231 78.064 73.5431 77.7973 73.6391 77.264L73.8791 75.984H75.1911V78.064H78.3271V79.504H75.1911V83.376C75.1911 83.792 75.2817 84.0853 75.4631 84.256C75.6551 84.416 75.9804 84.496 76.4391 84.496H78.2951V86H76.0391ZM81.2008 86V84.528H83.1368V80.064C83.1368 79.712 82.9661 79.536 82.6248 79.536H81.3608V78.064H83.2648C83.7021 78.064 84.0595 78.192 84.3368 78.448C84.6141 78.6933 84.7528 79.04 84.7528 79.488V79.68H84.8328C84.9501 79.0827 85.2008 78.6347 85.5848 78.336C85.9795 78.0267 86.5501 77.872 87.2968 77.872H88.5288V79.664H86.8008C86.1715 79.664 85.6861 79.8827 85.3448 80.32C85.0035 80.7573 84.8328 81.28 84.8328 81.888V84.528H87.2968V86H81.2008ZM94.3626 86.192C93.6052 86.192 92.9279 86.0213 92.3306 85.68C91.7332 85.3387 91.2639 84.8587 90.9226 84.24C90.5812 83.6107 90.4106 82.8747 90.4106 82.032C90.4106 81.1893 90.5812 80.4587 90.9226 79.84C91.2639 79.2107 91.7332 78.7253 92.3306 78.384C92.9279 78.0427 93.6106 77.872 94.3786 77.872C95.1466 77.872 95.8239 78.0427 96.4106 78.384C97.0079 78.7253 97.4719 79.2107 97.8026 79.84C98.1439 80.4587 98.3146 81.1893 98.3146 82.032C98.3146 82.8747 98.1439 83.6107 97.8026 84.24C97.4612 84.8587 96.9919 85.3387 96.3946 85.68C95.8079 86.0213 95.1306 86.192 94.3626 86.192ZM94.3626 84.576C94.7679 84.576 95.1412 84.4853 95.4826 84.304C95.8239 84.1227 96.0959 83.8453 96.2986 83.472C96.5119 83.088 96.6186 82.608 96.6186 82.032C96.6186 81.4453 96.5119 80.9653 96.2986 80.592C96.0959 80.2187 95.8239 79.9413 95.4826 79.76C95.1519 79.5787 94.7839 79.488 94.3786 79.488C93.9732 79.488 93.5999 79.5787 93.2586 79.76C92.9172 79.9413 92.6399 80.2187 92.4266 80.592C92.2239 80.9653 92.1226 81.4453 92.1226 82.032C92.1226 82.9067 92.3412 83.552 92.7786 83.968C93.2266 84.3733 93.7546 84.576 94.3626 84.576ZM100.404 86V78.064H101.876L102.02 79.248H102.1C102.314 78.864 102.644 78.5387 103.092 78.272C103.54 78.0053 104.058 77.872 104.644 77.872C105.615 77.872 106.346 78.1653 106.836 78.752C107.327 79.3387 107.572 80.2027 107.572 81.344V86H105.876V81.552C105.876 80.8907 105.738 80.3787 105.46 80.016C105.183 79.6533 104.746 79.472 104.148 79.472C103.562 79.472 103.071 79.6693 102.676 80.064C102.292 80.4587 102.1 81.0293 102.1 81.776V86H100.404ZM113.39 76.848C113.017 76.848 112.702 76.7307 112.446 76.496C112.201 76.2507 112.078 75.952 112.078 75.6C112.078 75.248 112.201 74.9547 112.446 74.72C112.702 74.4853 113.017 74.368 113.39 74.368C113.774 74.368 114.089 74.4853 114.334 74.72C114.59 74.9547 114.718 75.248 114.718 75.6C114.718 75.952 114.59 76.2507 114.334 76.496C114.089 76.7307 113.774 76.848 113.39 76.848ZM110.206 86V84.528H112.702V80.064C112.702 79.712 112.531 79.536 112.19 79.536H110.43V78.064H112.494C113.155 78.064 113.635 78.2187 113.934 78.528C114.243 78.8267 114.398 79.3067 114.398 79.968V84.528H116.894V86H110.206ZM123.256 86.192C122.52 86.192 121.858 86.0213 121.272 85.68C120.696 85.3387 120.242 84.8587 119.912 84.24C119.581 83.6107 119.416 82.8747 119.416 82.032C119.416 81.1893 119.581 80.4587 119.912 79.84C120.253 79.2213 120.712 78.7413 121.288 78.4C121.864 78.048 122.52 77.872 123.256 77.872C124.269 77.872 125.085 78.128 125.704 78.64C126.333 79.1413 126.733 79.8347 126.904 80.72H125.128C125.021 80.336 124.802 80.032 124.472 79.808C124.152 79.584 123.741 79.472 123.24 79.472C122.877 79.472 122.53 79.568 122.2 79.76C121.88 79.952 121.618 80.24 121.416 80.624C121.224 80.9973 121.128 81.4667 121.128 82.032C121.128 82.5867 121.224 83.056 121.416 83.44C121.618 83.824 121.88 84.1173 122.2 84.32C122.53 84.512 122.877 84.608 123.24 84.608C123.752 84.608 124.162 84.496 124.472 84.272C124.781 84.048 125 83.7387 125.128 83.344H126.904C126.69 84.2187 126.274 84.912 125.656 85.424C125.037 85.936 124.237 86.192 123.256 86.192ZM132.802 86.192C131.756 86.192 130.924 85.9467 130.306 85.456C129.687 84.9653 129.335 84.3147 129.25 83.504H130.994C131.058 83.8773 131.244 84.1813 131.554 84.416C131.874 84.6507 132.295 84.768 132.818 84.768C133.319 84.768 133.703 84.6667 133.97 84.464C134.247 84.2507 134.386 84.0053 134.386 83.728C134.386 83.3227 134.22 83.0453 133.89 82.896C133.57 82.7467 133.095 82.6347 132.466 82.56C131.922 82.496 131.426 82.3733 130.978 82.192C130.54 82 130.194 81.744 129.938 81.424C129.682 81.0933 129.554 80.6827 129.554 80.192C129.554 79.4987 129.826 78.9387 130.37 78.512C130.914 78.0853 131.671 77.872 132.642 77.872C133.612 77.872 134.364 78.0907 134.898 78.528C135.431 78.9653 135.74 79.5627 135.826 80.32H134.194C134.151 80 133.986 79.7493 133.698 79.568C133.41 79.376 133.052 79.28 132.626 79.28C132.188 79.28 131.842 79.3653 131.586 79.536C131.33 79.696 131.202 79.9093 131.202 80.176C131.202 80.752 131.82 81.104 133.058 81.232C133.644 81.296 134.167 81.408 134.626 81.568C135.084 81.7173 135.447 81.9573 135.714 82.288C135.98 82.608 136.114 83.0613 136.114 83.648C136.124 84.128 135.986 84.56 135.698 84.944C135.42 85.328 135.031 85.632 134.53 85.856C134.039 86.08 133.463 86.192 132.802 86.192Z" fill="#2E2E2C"/>
<path d="M275.959 79.4766L272.699 82.7366C272.314 83.1216 271.684 83.1216 271.299 82.7366L268.039 79.4766" stroke="#2E2E2C" stroke-width="0.75" stroke-miterlimit="10" stroke-linecap="round" stroke-linejoin="round"/>
<path d="M17.8401 154H16.0801L20.9921 142.672H22.4321L27.2961 154H25.5041L24.3521 151.216H18.9761L17.8401 154ZM19.5361 149.824H23.7761L21.6641 144.512L19.5361 149.824ZM30.1591 152.8V154H28.7031V141.904H30.2071V147.552H30.2551C30.5111 147.179 30.8684 146.864 31.3271 146.608C31.7857 146.341 32.3297 146.208 32.9591 146.208C33.5244 146.208 34.0364 146.309 34.4951 146.512C34.9644 146.715 35.3644 146.997 35.6951 147.36C36.0364 147.723 36.2977 148.149 36.4791 148.64C36.6604 149.12 36.7511 149.637 36.7511 150.192C36.7511 150.747 36.6604 151.269 36.4791 151.76C36.2977 152.251 36.0417 152.677 35.7111 153.04C35.3804 153.403 34.9804 153.691 34.5111 153.904C34.0417 154.107 33.5137 154.208 32.9271 154.208C32.3831 154.208 31.8657 154.091 31.3751 153.856C30.8844 153.611 30.4897 153.259 30.1911 152.8H30.1591ZM35.1991 150.192C35.1991 149.84 35.1457 149.499 35.0391 149.168C34.9324 148.837 34.7724 148.544 34.5591 148.288C34.3457 148.032 34.0791 147.829 33.7591 147.68C33.4497 147.531 33.0871 147.456 32.6711 147.456C32.2871 147.456 31.9351 147.531 31.6151 147.68C31.3057 147.829 31.0391 148.032 30.8151 148.288C30.5911 148.544 30.4151 148.837 30.2871 149.168C30.1697 149.499 30.1111 149.845 30.1111 150.208C30.1111 150.571 30.1697 150.917 30.2871 151.248C30.4151 151.579 30.5911 151.872 30.8151 152.128C31.0391 152.373 31.3057 152.571 31.6151 152.72C31.9351 152.869 32.2871 152.944 32.6711 152.944C33.0871 152.944 33.4497 152.869 33.7591 152.72C34.0791 152.56 34.3457 152.352 34.5591 152.096C34.7724 151.84 34.9324 151.547 35.0391 151.216C35.1457 150.885 35.1991 150.544 35.1991 150.192ZM42.9389 148.336C42.7683 148.059 42.5283 147.835 42.2189 147.664C41.9096 147.483 41.5629 147.392 41.1789 147.392C41.0083 147.392 40.8376 147.413 40.6669 147.456C40.4963 147.488 40.3416 147.547 40.2029 147.632C40.0749 147.707 39.9683 147.808 39.8829 147.936C39.8083 148.053 39.7709 148.203 39.7709 148.384C39.7709 148.704 39.9149 148.944 40.2029 149.104C40.4909 149.253 40.9229 149.392 41.4989 149.52C41.8616 149.605 42.1976 149.707 42.5069 149.824C42.8163 149.941 43.0829 150.091 43.3069 150.272C43.5416 150.443 43.7229 150.651 43.8509 150.896C43.9789 151.141 44.0429 151.429 44.0429 151.76C44.0429 152.208 43.9576 152.587 43.7869 152.896C43.6163 153.205 43.3869 153.461 43.0989 153.664C42.8216 153.856 42.5016 153.995 42.1389 154.08C41.7763 154.165 41.4029 154.208 41.0189 154.208C40.4429 154.208 39.8776 154.096 39.3229 153.872C38.7789 153.648 38.3256 153.307 37.9629 152.848L39.0349 151.936C39.2376 152.235 39.5149 152.485 39.8669 152.688C40.2296 152.891 40.6243 152.992 41.0509 152.992C41.2429 152.992 41.4243 152.976 41.5949 152.944C41.7763 152.901 41.9363 152.837 42.0749 152.752C42.2243 152.667 42.3416 152.555 42.4269 152.416C42.5123 152.277 42.5549 152.101 42.5549 151.888C42.5549 151.536 42.3843 151.275 42.0429 151.104C41.7123 150.933 41.2216 150.773 40.5709 150.624C40.3149 150.56 40.0536 150.485 39.7869 150.4C39.5309 150.304 39.2963 150.176 39.0829 150.016C38.8696 149.856 38.6936 149.659 38.5549 149.424C38.4269 149.179 38.3629 148.88 38.3629 148.528C38.3629 148.123 38.4429 147.776 38.6029 147.488C38.7736 147.189 38.9923 146.949 39.2589 146.768C39.5256 146.576 39.8296 146.437 40.1709 146.352C40.5123 146.256 40.8643 146.208 41.2269 146.208C41.7709 146.208 42.2936 146.315 42.7949 146.528C43.3069 146.741 43.7016 147.051 43.9789 147.456L42.9389 148.336ZM49.6643 147.648H47.6483V151.6C47.6483 152.059 47.7336 152.389 47.9043 152.592C48.075 152.784 48.347 152.88 48.7203 152.88C48.859 152.88 49.0083 152.864 49.1683 152.832C49.3283 152.8 49.4723 152.752 49.6003 152.688L49.6483 153.92C49.467 153.984 49.2643 154.032 49.0403 154.064C48.827 154.107 48.603 154.128 48.3683 154.128C47.6536 154.128 47.1043 153.931 46.7203 153.536C46.347 153.141 46.1603 152.549 46.1603 151.76V147.648H44.7043V146.416H46.1603V144.24H47.6483V146.416H49.6643V147.648ZM51.2179 148.048C51.2179 147.845 51.2126 147.584 51.2019 147.264C51.1913 146.944 51.1753 146.661 51.1539 146.416H52.5779C52.5993 146.608 52.6153 146.832 52.6259 147.088C52.6366 147.333 52.6419 147.536 52.6419 147.696H52.6899C52.9033 147.248 53.2126 146.891 53.6179 146.624C54.0339 146.347 54.4979 146.208 55.0099 146.208C55.2446 146.208 55.4419 146.229 55.6019 146.272L55.5379 147.664C55.3246 147.611 55.0953 147.584 54.8499 147.584C54.4873 147.584 54.1726 147.653 53.9059 147.792C53.6393 147.92 53.4153 148.096 53.2339 148.32C53.0633 148.544 52.9353 148.805 52.8499 149.104C52.7646 149.392 52.7219 149.696 52.7219 150.016V154H51.2179V148.048ZM61.5317 149.088C61.5317 148.523 61.361 148.107 61.0197 147.84C60.6784 147.563 60.225 147.424 59.6597 147.424C59.233 147.424 58.8277 147.509 58.4437 147.68C58.0704 147.84 57.7557 148.048 57.4997 148.304L56.6997 147.344C57.073 146.992 57.5264 146.715 58.0597 146.512C58.6037 146.309 59.185 146.208 59.8037 146.208C60.3477 146.208 60.817 146.288 61.2117 146.448C61.617 146.597 61.9477 146.805 62.2037 147.072C62.4597 147.339 62.6517 147.653 62.7797 148.016C62.9077 148.379 62.9717 148.768 62.9717 149.184V152.496C62.9717 152.752 62.977 153.024 62.9877 153.312C63.009 153.589 63.041 153.819 63.0837 154H61.7237C61.6384 153.637 61.5957 153.275 61.5957 152.912H61.5477C61.2704 153.317 60.9184 153.632 60.4917 153.856C60.0757 154.08 59.5797 154.192 59.0037 154.192C58.705 154.192 58.3904 154.149 58.0597 154.064C57.7397 153.989 57.4464 153.861 57.1797 153.68C56.913 153.499 56.689 153.259 56.5077 152.96C56.337 152.661 56.2517 152.293 56.2517 151.856C56.2517 151.28 56.4064 150.827 56.7157 150.496C57.025 150.155 57.4304 149.899 57.9317 149.728C58.433 149.547 58.9984 149.429 59.6277 149.376C60.257 149.323 60.8917 149.296 61.5317 149.296V149.088ZM61.1637 150.384C60.7904 150.384 60.401 150.4 59.9957 150.432C59.601 150.464 59.2384 150.528 58.9077 150.624C58.5877 150.72 58.321 150.864 58.1077 151.056C57.8944 151.248 57.7877 151.504 57.7877 151.824C57.7877 152.048 57.8304 152.235 57.9157 152.384C58.0117 152.533 58.1344 152.656 58.2837 152.752C58.433 152.848 58.5984 152.917 58.7797 152.96C58.961 152.992 59.1477 153.008 59.3397 153.008C60.0437 153.008 60.5824 152.8 60.9557 152.384C61.3397 151.957 61.5317 151.424 61.5317 150.784V150.384H61.1637ZM70.7956 148.336C70.6356 148.091 70.3956 147.888 70.0756 147.728C69.7556 147.557 69.4142 147.472 69.0516 147.472C68.6569 147.472 68.3049 147.547 67.9956 147.696C67.6969 147.845 67.4409 148.048 67.2276 148.304C67.0142 148.549 66.8489 148.837 66.7316 149.168C66.6249 149.499 66.5716 149.845 66.5716 150.208C66.5716 150.571 66.6249 150.917 66.7316 151.248C66.8489 151.579 67.0142 151.872 67.2276 152.128C67.4409 152.373 67.7022 152.571 68.0116 152.72C68.3209 152.869 68.6729 152.944 69.0676 152.944C69.4516 152.944 69.7982 152.869 70.1076 152.72C70.4276 152.571 70.6889 152.368 70.8916 152.112L71.8996 153.024C71.5796 153.397 71.1796 153.691 70.6996 153.904C70.2196 154.107 69.6756 154.208 69.0676 154.208C68.4809 154.208 67.9369 154.112 67.4356 153.92C66.9449 153.728 66.5182 153.461 66.1556 153.12C65.7929 152.768 65.5049 152.347 65.2916 151.856C65.0889 151.365 64.9876 150.816 64.9876 150.208C64.9876 149.611 65.0889 149.067 65.2916 148.576C65.4942 148.085 65.7769 147.664 66.1396 147.312C66.5022 146.96 66.9289 146.688 67.4196 146.496C67.9209 146.304 68.4596 146.208 69.0356 146.208C69.5689 146.208 70.0969 146.315 70.6196 146.528C71.1529 146.741 71.5742 147.051 71.8836 147.456L70.7956 148.336ZM77.1018 147.648H75.0858V151.6C75.0858 152.059 75.1711 152.389 75.3418 152.592C75.5125 152.784 75.7845 152.88 76.1578 152.88C76.2965 152.88 76.4458 152.864 76.6058 152.832C76.7658 152.8 76.9098 152.752 77.0378 152.688L77.0858 153.92C76.9045 153.984 76.7018 154.032 76.4778 154.064C76.2645 154.107 76.0405 154.128 75.8058 154.128C75.0911 154.128 74.5418 153.931 74.1578 153.536C73.7845 153.141 73.5978 152.549 73.5978 151.76V147.648H72.1418V146.416H73.5978V144.24H75.0858V146.416H77.1018V147.648Z" fill="black"/>
<rect x="17.0001" y="176" width="276" height="56" rx="9" fill="#9D6BF4"/>
<rect x="17.0001" y="176" width="276" height="56" rx="9" stroke="#8A4FEF" stroke-width="2"/>
<path d="M33.2801 209V197.8H40.4321V199.32H34.9761V202.584H39.9521V204.088H34.9761V207.48H40.4321V209H33.2801ZM41.9938 209V201.064H43.4018L43.5458 201.992H43.6258C43.7645 201.661 43.9778 201.395 44.2658 201.192C44.5538 200.979 44.8951 200.872 45.2898 200.872C45.6738 200.872 46.0098 200.968 46.2978 201.16C46.5858 201.352 46.7991 201.629 46.9378 201.992H47.0018C47.1405 201.672 47.3591 201.405 47.6578 201.192C47.9565 200.979 48.3245 200.872 48.7618 200.872C49.3485 200.872 49.7911 201.064 50.0898 201.448C50.3991 201.832 50.5538 202.371 50.5538 203.064V209H48.9218V203.4C48.9218 203.08 48.8525 202.829 48.7138 202.648C48.5858 202.456 48.3778 202.36 48.0898 202.36C47.8018 202.36 47.5618 202.472 47.3698 202.696C47.1885 202.92 47.0978 203.235 47.0978 203.64V209H45.4498V203.4C45.4498 203.08 45.3858 202.829 45.2578 202.648C45.1298 202.456 44.9218 202.36 44.6338 202.36C44.3458 202.36 44.1058 202.472 43.9138 202.696C43.7218 202.92 43.6258 203.235 43.6258 203.64V209H41.9938ZM55.9876 209.192C55.2302 209.192 54.5529 209.021 53.9556 208.68C53.3582 208.339 52.8889 207.859 52.5476 207.24C52.2062 206.611 52.0356 205.875 52.0356 205.032C52.0356 204.189 52.2062 203.459 52.5476 202.84C52.8889 202.211 53.3582 201.725 53.9556 201.384C54.5529 201.043 55.2356 200.872 56.0036 200.872C56.7716 200.872 57.4489 201.043 58.0356 201.384C58.6329 201.725 59.0969 202.211 59.4276 202.84C59.7689 203.459 59.9396 204.189 59.9396 205.032C59.9396 205.875 59.7689 206.611 59.4276 207.24C59.0862 207.859 58.6169 208.339 58.0196 208.68C57.4329 209.021 56.7556 209.192 55.9876 209.192ZM55.9876 207.576C56.3929 207.576 56.7662 207.485 57.1076 207.304C57.4489 207.123 57.7209 206.845 57.9236 206.472C58.1369 206.088 58.2436 205.608 58.2436 205.032C58.2436 204.445 58.1369 203.965 57.9236 203.592C57.7209 203.219 57.4489 202.941 57.1076 202.76C56.7769 202.579 56.4089 202.488 56.0036 202.488C55.5982 202.488 55.2249 202.579 54.8836 202.76C54.5422 202.941 54.2649 203.219 54.0516 203.592C53.8489 203.965 53.7476 204.445 53.7476 205.032C53.7476 205.907 53.9662 206.552 54.4036 206.968C54.8516 207.373 55.3796 207.576 55.9876 207.576ZM66.4453 209C65.6666 209 65.048 208.813 64.5893 208.44C64.1306 208.056 63.9013 207.379 63.9013 206.408V202.504H61.9013V201.064H63.0853C63.6293 201.064 63.9493 200.797 64.0453 200.264L64.2853 198.984H65.5973V201.064H68.7333V202.504H65.5973V206.376C65.5973 206.792 65.688 207.085 65.8693 207.256C66.0613 207.416 66.3866 207.496 66.8453 207.496H68.7013V209H66.4453ZM75.0151 199.848C74.6417 199.848 74.3271 199.731 74.0711 199.496C73.8257 199.251 73.7031 198.952 73.7031 198.6C73.7031 198.248 73.8257 197.955 74.0711 197.72C74.3271 197.485 74.6417 197.368 75.0151 197.368C75.3991 197.368 75.7137 197.485 75.9591 197.72C76.2151 197.955 76.3431 198.248 76.3431 198.6C76.3431 198.952 76.2151 199.251 75.9591 199.496C75.7137 199.731 75.3991 199.848 75.0151 199.848ZM71.8311 209V207.528H74.3271V203.064C74.3271 202.712 74.1564 202.536 73.8151 202.536H72.0551V201.064H74.1191C74.7804 201.064 75.2604 201.219 75.5591 201.528C75.8684 201.827 76.0231 202.307 76.0231 202.968V207.528H78.5191V209H71.8311ZM84.7688 209.192C84.0115 209.192 83.3341 209.021 82.7368 208.68C82.1395 208.339 81.6701 207.859 81.3288 207.24C80.9875 206.611 80.8168 205.875 80.8168 205.032C80.8168 204.189 80.9875 203.459 81.3288 202.84C81.6701 202.211 82.1395 201.725 82.7368 201.384C83.3341 201.043 84.0168 200.872 84.7848 200.872C85.5528 200.872 86.2301 201.043 86.8168 201.384C87.4141 201.725 87.8781 202.211 88.2088 202.84C88.5501 203.459 88.7208 204.189 88.7208 205.032C88.7208 205.875 88.5501 206.611 88.2088 207.24C87.8675 207.859 87.3981 208.339 86.8008 208.68C86.2141 209.021 85.5368 209.192 84.7688 209.192ZM84.7688 207.576C85.1741 207.576 85.5475 207.485 85.8888 207.304C86.2301 207.123 86.5021 206.845 86.7048 206.472C86.9181 206.088 87.0248 205.608 87.0248 205.032C87.0248 204.445 86.9181 203.965 86.7048 203.592C86.5021 203.219 86.2301 202.941 85.8888 202.76C85.5581 202.579 85.1901 202.488 84.7848 202.488C84.3795 202.488 84.0061 202.579 83.6648 202.76C83.3235 202.941 83.0461 203.219 82.8328 203.592C82.6301 203.965 82.5288 204.445 82.5288 205.032C82.5288 205.907 82.7475 206.552 83.1848 206.968C83.6328 207.373 84.1608 207.576 84.7688 207.576ZM90.8106 209V201.064H92.2826L92.4266 202.248H92.5066C92.7199 201.864 93.0506 201.539 93.4986 201.272C93.9466 201.005 94.4639 200.872 95.0506 200.872C96.0212 200.872 96.7519 201.165 97.2426 201.752C97.7332 202.339 97.9786 203.203 97.9786 204.344V209H96.2826V204.552C96.2826 203.891 96.1439 203.379 95.8666 203.016C95.5892 202.653 95.1519 202.472 94.5546 202.472C93.9679 202.472 93.4772 202.669 93.0826 203.064C92.6986 203.459 92.5066 204.029 92.5066 204.776V209H90.8106ZM104.02 209.192C102.975 209.192 102.143 208.947 101.524 208.456C100.906 207.965 100.554 207.315 100.468 206.504H102.212C102.276 206.877 102.463 207.181 102.772 207.416C103.092 207.651 103.514 207.768 104.036 207.768C104.538 207.768 104.922 207.667 105.188 207.464C105.466 207.251 105.604 207.005 105.604 206.728C105.604 206.323 105.439 206.045 105.108 205.896C104.788 205.747 104.314 205.635 103.684 205.56C103.14 205.496 102.644 205.373 102.196 205.192C101.759 205 101.412 204.744 101.156 204.424C100.9 204.093 100.772 203.683 100.772 203.192C100.772 202.499 101.044 201.939 101.588 201.512C102.132 201.085 102.89 200.872 103.86 200.872C104.831 200.872 105.583 201.091 106.116 201.528C106.65 201.965 106.959 202.563 107.044 203.32H105.412C105.37 203 105.204 202.749 104.916 202.568C104.628 202.376 104.271 202.28 103.844 202.28C103.407 202.28 103.06 202.365 102.804 202.536C102.548 202.696 102.42 202.909 102.42 203.176C102.42 203.752 103.039 204.104 104.276 204.232C104.863 204.296 105.386 204.408 105.844 204.568C106.303 204.717 106.666 204.957 106.932 205.288C107.199 205.608 107.332 206.061 107.332 206.648C107.343 207.128 107.204 207.56 106.916 207.944C106.639 208.328 106.25 208.632 105.748 208.856C105.258 209.08 104.682 209.192 104.02 209.192Z" fill="white"/>
<path d="M275.959 202.477L272.699 205.737C272.314 206.122 271.684 206.122 271.299 205.737L268.039 202.477" stroke="white" stroke-width="0.75" stroke-miterlimit="10" stroke-linecap="round" stroke-linejoin="round"/>
<rect x="16.0001" y="262" width="230" height="40" rx="10" fill="#3C3C3C"/>
<path d="M90.3976 287H88.8136V275.672H92.4456C92.9896 275.672 93.5069 275.731 93.9976 275.848C94.4882 275.955 94.9149 276.131 95.2776 276.376C95.6509 276.621 95.9442 276.947 96.1576 277.352C96.3709 277.747 96.4776 278.232 96.4776 278.808C96.4776 279.64 96.2216 280.312 95.7096 280.824C95.1976 281.336 94.5362 281.661 93.7256 281.8L96.8936 287H94.9736L92.0936 281.96H90.3976V287ZM90.3976 280.632H92.2216C92.5949 280.632 92.9416 280.6 93.2616 280.536C93.5816 280.472 93.8589 280.371 94.0936 280.232C94.3389 280.083 94.5309 279.896 94.6696 279.672C94.8082 279.437 94.8776 279.149 94.8776 278.808C94.8776 278.467 94.8082 278.184 94.6696 277.96C94.5309 277.725 94.3442 277.539 94.1096 277.4C93.8856 277.261 93.6189 277.165 93.3096 277.112C93.0002 277.048 92.6749 277.016 92.3336 277.016H90.3976V280.632ZM103.926 282.536C103.916 282.237 103.862 281.96 103.766 281.704C103.681 281.437 103.548 281.208 103.366 281.016C103.196 280.824 102.977 280.675 102.71 280.568C102.454 280.451 102.15 280.392 101.798 280.392C101.478 280.392 101.174 280.451 100.886 280.568C100.609 280.675 100.364 280.824 100.15 281.016C99.9475 281.208 99.7769 281.437 99.6382 281.704C99.5102 281.96 99.4355 282.237 99.4142 282.536H103.926ZM105.446 283.144C105.446 283.229 105.446 283.315 105.446 283.4C105.446 283.485 105.441 283.571 105.43 283.656H99.4142C99.4249 283.976 99.4942 284.28 99.6222 284.568C99.7609 284.845 99.9422 285.091 100.166 285.304C100.39 285.507 100.646 285.667 100.934 285.784C101.233 285.901 101.548 285.96 101.878 285.96C102.39 285.96 102.833 285.848 103.206 285.624C103.58 285.4 103.873 285.128 104.086 284.808L105.142 285.656C104.737 286.189 104.257 286.584 103.702 286.84C103.158 287.085 102.55 287.208 101.878 287.208C101.302 287.208 100.769 287.112 100.278 286.92C99.7875 286.728 99.3662 286.461 99.0142 286.12C98.6622 285.768 98.3849 285.347 98.1822 284.856C97.9795 284.365 97.8782 283.821 97.8782 283.224C97.8782 282.637 97.9742 282.099 98.1662 281.608C98.3689 281.107 98.6462 280.68 98.9982 280.328C99.3502 279.976 99.7662 279.704 100.246 279.512C100.726 279.309 101.244 279.208 101.798 279.208C102.353 279.208 102.854 279.299 103.302 279.48C103.761 279.661 104.145 279.923 104.454 280.264C104.774 280.605 105.02 281.021 105.19 281.512C105.361 281.992 105.446 282.536 105.446 283.144ZM108.138 288.296C108.469 288.669 108.879 288.968 109.37 289.192C109.871 289.416 110.383 289.528 110.906 289.528C111.407 289.528 111.829 289.453 112.17 289.304C112.511 289.165 112.783 288.968 112.986 288.712C113.199 288.467 113.349 288.173 113.434 287.832C113.53 287.491 113.578 287.123 113.578 286.728V285.752H113.546C113.269 286.179 112.89 286.504 112.41 286.728C111.93 286.952 111.418 287.064 110.874 287.064C110.298 287.064 109.77 286.963 109.29 286.76C108.821 286.557 108.421 286.28 108.09 285.928C107.759 285.576 107.503 285.165 107.322 284.696C107.141 284.216 107.05 283.704 107.05 283.16C107.05 282.616 107.141 282.104 107.322 281.624C107.503 281.144 107.759 280.728 108.09 280.376C108.421 280.013 108.821 279.731 109.29 279.528C109.759 279.315 110.282 279.208 110.858 279.208C111.402 279.208 111.919 279.325 112.41 279.56C112.911 279.795 113.306 280.152 113.594 280.632H113.626V279.416H115.082V286.616C115.082 287.171 115.013 287.699 114.874 288.2C114.735 288.712 114.501 289.16 114.17 289.544C113.839 289.939 113.407 290.253 112.874 290.488C112.341 290.723 111.679 290.84 110.89 290.84C110.229 290.84 109.562 290.717 108.89 290.472C108.229 290.237 107.658 289.901 107.178 289.464L108.138 288.296ZM108.602 283.128C108.602 283.48 108.655 283.816 108.762 284.136C108.879 284.456 109.045 284.739 109.258 284.984C109.482 285.229 109.749 285.427 110.058 285.576C110.367 285.725 110.719 285.8 111.114 285.8C111.498 285.8 111.85 285.731 112.17 285.592C112.49 285.453 112.762 285.267 112.986 285.032C113.21 284.787 113.381 284.504 113.498 284.184C113.626 283.853 113.69 283.501 113.69 283.128C113.69 282.765 113.626 282.424 113.498 282.104C113.381 281.784 113.205 281.501 112.97 281.256C112.746 281.011 112.474 280.819 112.154 280.68C111.845 280.531 111.498 280.456 111.114 280.456C110.719 280.456 110.367 280.531 110.058 280.68C109.749 280.819 109.482 281.011 109.258 281.256C109.045 281.491 108.879 281.773 108.762 282.104C108.655 282.424 108.602 282.765 108.602 283.128ZM123.207 282.536C123.197 282.237 123.143 281.96 123.047 281.704C122.962 281.437 122.829 281.208 122.647 281.016C122.477 280.824 122.258 280.675 121.991 280.568C121.735 280.451 121.431 280.392 121.079 280.392C120.759 280.392 120.455 280.451 120.167 280.568C119.89 280.675 119.645 280.824 119.431 281.016C119.229 281.208 119.058 281.437 118.919 281.704C118.791 281.96 118.717 282.237 118.695 282.536H123.207ZM124.727 283.144C124.727 283.229 124.727 283.315 124.727 283.4C124.727 283.485 124.722 283.571 124.711 283.656H118.695C118.706 283.976 118.775 284.28 118.903 284.568C119.042 284.845 119.223 285.091 119.447 285.304C119.671 285.507 119.927 285.667 120.215 285.784C120.514 285.901 120.829 285.96 121.159 285.96C121.671 285.96 122.114 285.848 122.487 285.624C122.861 285.4 123.154 285.128 123.367 284.808L124.423 285.656C124.018 286.189 123.538 286.584 122.983 286.84C122.439 287.085 121.831 287.208 121.159 287.208C120.583 287.208 120.05 287.112 119.559 286.92C119.069 286.728 118.647 286.461 118.295 286.12C117.943 285.768 117.666 285.347 117.463 284.856C117.261 284.365 117.159 283.821 117.159 283.224C117.159 282.637 117.255 282.099 117.447 281.608C117.65 281.107 117.927 280.68 118.279 280.328C118.631 279.976 119.047 279.704 119.527 279.512C120.007 279.309 120.525 279.208 121.079 279.208C121.634 279.208 122.135 279.299 122.583 279.48C123.042 279.661 123.426 279.923 123.735 280.264C124.055 280.605 124.301 281.021 124.471 281.512C124.642 281.992 124.727 282.536 124.727 283.144ZM128.187 279.416C128.209 279.608 128.225 279.827 128.235 280.072C128.246 280.307 128.251 280.504 128.251 280.664H128.299C128.395 280.461 128.523 280.275 128.683 280.104C128.854 279.923 129.046 279.768 129.259 279.64C129.473 279.501 129.707 279.395 129.963 279.32C130.219 279.245 130.486 279.208 130.763 279.208C131.254 279.208 131.675 279.293 132.027 279.464C132.379 279.624 132.673 279.843 132.907 280.12C133.142 280.397 133.313 280.723 133.419 281.096C133.537 281.469 133.595 281.869 133.595 282.296V287H132.091V282.792C132.091 282.483 132.065 282.189 132.011 281.912C131.969 281.635 131.883 281.389 131.755 281.176C131.627 280.963 131.451 280.792 131.227 280.664C131.003 280.536 130.715 280.472 130.363 280.472C129.766 280.472 129.275 280.701 128.891 281.16C128.518 281.608 128.331 282.211 128.331 282.968V287H126.827V281.048C126.827 280.845 126.822 280.584 126.811 280.264C126.801 279.944 126.785 279.661 126.763 279.416H128.187ZM141.692 282.536C141.681 282.237 141.628 281.96 141.532 281.704C141.446 281.437 141.313 281.208 141.132 281.016C140.961 280.824 140.742 280.675 140.476 280.568C140.22 280.451 139.916 280.392 139.564 280.392C139.244 280.392 138.94 280.451 138.652 280.568C138.374 280.675 138.129 280.824 137.916 281.016C137.713 281.208 137.542 281.437 137.404 281.704C137.276 281.96 137.201 282.237 137.18 282.536H141.692ZM143.212 283.144C143.212 283.229 143.212 283.315 143.212 283.4C143.212 283.485 143.206 283.571 143.196 283.656H137.18C137.19 283.976 137.26 284.28 137.388 284.568C137.526 284.845 137.708 285.091 137.932 285.304C138.156 285.507 138.412 285.667 138.7 285.784C138.998 285.901 139.313 285.96 139.644 285.96C140.156 285.96 140.598 285.848 140.972 285.624C141.345 285.4 141.638 285.128 141.852 284.808L142.908 285.656C142.502 286.189 142.022 286.584 141.468 286.84C140.924 287.085 140.316 287.208 139.644 287.208C139.068 287.208 138.534 287.112 138.044 286.92C137.553 286.728 137.132 286.461 136.78 286.12C136.428 285.768 136.15 285.347 135.948 284.856C135.745 284.365 135.644 283.821 135.644 283.224C135.644 282.637 135.74 282.099 135.932 281.608C136.134 281.107 136.412 280.68 136.764 280.328C137.116 279.976 137.532 279.704 138.012 279.512C138.492 279.309 139.009 279.208 139.564 279.208C140.118 279.208 140.62 279.299 141.068 279.48C141.526 279.661 141.91 279.923 142.22 280.264C142.54 280.605 142.785 281.021 142.956 281.512C143.126 281.992 143.212 282.536 143.212 283.144ZM145.312 281.048C145.312 280.845 145.306 280.584 145.296 280.264C145.285 279.944 145.269 279.661 145.248 279.416H146.672C146.693 279.608 146.709 279.832 146.72 280.088C146.73 280.333 146.736 280.536 146.736 280.696H146.784C146.997 280.248 147.306 279.891 147.712 279.624C148.128 279.347 148.592 279.208 149.104 279.208C149.338 279.208 149.536 279.229 149.696 279.272L149.632 280.664C149.418 280.611 149.189 280.584 148.944 280.584C148.581 280.584 148.266 280.653 148 280.792C147.733 280.92 147.509 281.096 147.328 281.32C147.157 281.544 147.029 281.805 146.944 282.104C146.858 282.392 146.816 282.696 146.816 283.016V287H145.312V281.048ZM155.625 282.088C155.625 281.523 155.455 281.107 155.113 280.84C154.772 280.563 154.319 280.424 153.753 280.424C153.327 280.424 152.921 280.509 152.537 280.68C152.164 280.84 151.849 281.048 151.593 281.304L150.793 280.344C151.167 279.992 151.62 279.715 152.153 279.512C152.697 279.309 153.279 279.208 153.897 279.208C154.441 279.208 154.911 279.288 155.305 279.448C155.711 279.597 156.041 279.805 156.297 280.072C156.553 280.339 156.745 280.653 156.873 281.016C157.001 281.379 157.065 281.768 157.065 282.184V285.496C157.065 285.752 157.071 286.024 157.081 286.312C157.103 286.589 157.135 286.819 157.177 287H155.817C155.732 286.637 155.689 286.275 155.689 285.912H155.641C155.364 286.317 155.012 286.632 154.585 286.856C154.169 287.08 153.673 287.192 153.097 287.192C152.799 287.192 152.484 287.149 152.153 287.064C151.833 286.989 151.54 286.861 151.273 286.68C151.007 286.499 150.783 286.259 150.601 285.96C150.431 285.661 150.345 285.293 150.345 284.856C150.345 284.28 150.5 283.827 150.809 283.496C151.119 283.155 151.524 282.899 152.025 282.728C152.527 282.547 153.092 282.429 153.721 282.376C154.351 282.323 154.985 282.296 155.625 282.296V282.088ZM155.257 283.384C154.884 283.384 154.495 283.4 154.089 283.432C153.695 283.464 153.332 283.528 153.001 283.624C152.681 283.72 152.415 283.864 152.201 284.056C151.988 284.248 151.881 284.504 151.881 284.824C151.881 285.048 151.924 285.235 152.009 285.384C152.105 285.533 152.228 285.656 152.377 285.752C152.527 285.848 152.692 285.917 152.873 285.96C153.055 285.992 153.241 286.008 153.433 286.008C154.137 286.008 154.676 285.8 155.049 285.384C155.433 284.957 155.625 284.424 155.625 283.784V283.384H155.257ZM163.133 280.648H161.117V284.6C161.117 285.059 161.202 285.389 161.373 285.592C161.544 285.784 161.816 285.88 162.189 285.88C162.328 285.88 162.477 285.864 162.637 285.832C162.797 285.8 162.941 285.752 163.069 285.688L163.117 286.92C162.936 286.984 162.733 287.032 162.509 287.064C162.296 287.107 162.072 287.128 161.837 287.128C161.122 287.128 160.573 286.931 160.189 286.536C159.816 286.141 159.629 285.549 159.629 284.76V280.648H158.173V279.416H159.629V277.24H161.117V279.416H163.133V280.648ZM170.239 282.536C170.228 282.237 170.175 281.96 170.079 281.704C169.993 281.437 169.86 281.208 169.679 281.016C169.508 280.824 169.289 280.675 169.023 280.568C168.767 280.451 168.463 280.392 168.111 280.392C167.791 280.392 167.487 280.451 167.199 280.568C166.921 280.675 166.676 280.824 166.463 281.016C166.26 281.208 166.089 281.437 165.951 281.704C165.823 281.96 165.748 282.237 165.727 282.536H170.239ZM171.759 283.144C171.759 283.229 171.759 283.315 171.759 283.4C171.759 283.485 171.753 283.571 171.743 283.656H165.727C165.737 283.976 165.807 284.28 165.935 284.568C166.073 284.845 166.255 285.091 166.479 285.304C166.703 285.507 166.959 285.667 167.247 285.784C167.545 285.901 167.86 285.96 168.191 285.96C168.703 285.96 169.145 285.848 169.519 285.624C169.892 285.4 170.185 285.128 170.399 284.808L171.455 285.656C171.049 286.189 170.569 286.584 170.015 286.84C169.471 287.085 168.863 287.208 168.191 287.208C167.615 287.208 167.081 287.112 166.591 286.92C166.1 286.728 165.679 286.461 165.327 286.12C164.975 285.768 164.697 285.347 164.495 284.856C164.292 284.365 164.191 283.821 164.191 283.224C164.191 282.637 164.287 282.099 164.479 281.608C164.681 281.107 164.959 280.68 165.311 280.328C165.663 279.976 166.079 279.704 166.559 279.512C167.039 279.309 167.556 279.208 168.111 279.208C168.665 279.208 169.167 279.299 169.615 279.48C170.073 279.661 170.457 279.923 170.767 280.264C171.087 280.605 171.332 281.021 171.503 281.512C171.673 281.992 171.759 282.536 171.759 283.144Z" fill="white"/>
<rect x="254.385" y="262.385" width="39.2308" height="39.2308" rx="2.69231" fill="#232323"/>
<rect x="254.385" y="262.385" width="39.2308" height="39.2308" rx="2.69231" stroke="white" stroke-width="0.769231"/>
<path d="M274.007 288.417C277.547 288.417 280.417 285.547 280.417 282.007C280.417 278.467 277.547 275.597 274.007 275.597C270.467 275.597 267.597 278.467 267.597 282.007C267.597 285.547 270.467 288.417 274.007 288.417Z" stroke="white" stroke-width="0.961538" stroke-miterlimit="10" stroke-linecap="round" stroke-linejoin="round"/>
<path d="M273.204 284.269L275.46 282.006L273.204 279.743" stroke="white" stroke-width="0.961538" stroke-linecap="round" stroke-linejoin="round"/>
<g filter="url(#filter0_d_0_5138)">
<rect x="289" y="231" width="261" height="240" rx="10" fill="white" shape-rendering="crispEdges"/>
<rect x="289.5" y="231.5" width="260" height="239" rx="9.5" stroke="#F5F7FA" shape-rendering="crispEdges"/>
<g clip-path="url(#clip0_0_5138)">
<rect width="260.999" height="48" transform="translate(289 231)" fill="#F4EFFE"/>
<mask id="mask0_0_5138" style="mask-type:alpha" maskUnits="userSpaceOnUse" x="305" y="243" width="24" height="24">
<rect x="305" y="243" width="24" height="24" fill="#D9D9D9"/>
</mask>
<g mask="url(#mask0_0_5138)">
<path d="M320.5 254C320.917 254 321.271 253.854 321.563 253.563C321.854 253.271 322 252.917 322 252.5C322 252.083 321.854 251.729 321.563 251.438C321.271 251.146 320.917 251 320.5 251C320.083 251 319.729 251.146 319.438 251.438C319.146 251.729 319 252.083 319 252.5C319 252.917 319.146 253.271 319.438 253.563C319.729 253.854 320.083 254 320.5 254ZM313.5 254C313.917 254 314.271 253.854 314.563 253.563C314.854 253.271 315 252.917 315 252.5C315 252.083 314.854 251.729 314.563 251.438C314.271 251.146 313.917 251 313.5 251C313.083 251 312.729 251.146 312.438 251.438C312.146 251.729 312 252.083 312 252.5C312 252.917 312.146 253.271 312.438 253.563C312.729 253.854 313.083 254 313.5 254ZM317 260.5C318.133 260.5 319.163 260.179 320.088 259.538C321.013 258.896 321.683 258.05 322.1 257H320.45C320.083 257.617 319.596 258.104 318.988 258.463C318.379 258.821 317.717 259 317 259C316.283 259 315.621 258.821 315.013 258.463C314.404 258.104 313.917 257.617 313.55 257H311.9C312.317 258.05 312.988 258.896 313.913 259.538C314.838 260.179 315.867 260.5 317 260.5ZM317 265C315.617 265 314.317 264.738 313.1 264.213C311.883 263.688 310.825 262.975 309.925 262.075C309.025 261.175 308.313 260.117 307.788 258.9C307.263 257.683 307 256.383 307 255C307 253.617 307.263 252.317 307.788 251.1C308.313 249.883 309.025 248.825 309.925 247.925C310.825 247.025 311.883 246.313 313.1 245.788C314.317 245.263 315.617 245 317 245C318.383 245 319.683 245.263 320.9 245.788C322.117 246.313 323.175 247.025 324.075 247.925C324.975 248.825 325.688 249.883 326.213 251.1C326.738 252.317 327 253.617 327 255C327 256.383 326.738 257.683 326.213 258.9C325.688 260.117 324.975 261.175 324.075 262.075C323.175 262.975 322.117 263.688 320.9 264.213C319.683 264.738 318.383 265 317 265ZM317 263C319.233 263 321.125 262.225 322.675 260.675C324.225 259.125 325 257.233 325 255C325 252.767 324.225 250.875 322.675 249.325C321.125 247.775 319.233 247 317 247C314.767 247 312.875 247.775 311.325 249.325C309.775 250.875 309 252.767 309 255C309 257.233 309.775 259.125 311.325 260.675C312.875 262.225 314.767 263 317 263Z" fill="#3C3C3C"/>
</g>
<path d="M342.28 260V248.8H349.432V250.32H343.976V253.584H348.952V255.088H343.976V258.48H349.432V260H342.28ZM350.994 260V252.064H352.402L352.546 252.992H352.626C352.764 252.661 352.978 252.395 353.266 252.192C353.554 251.979 353.895 251.872 354.29 251.872C354.674 251.872 355.01 251.968 355.298 252.16C355.586 252.352 355.799 252.629 355.938 252.992H356.002C356.14 252.672 356.359 252.405 356.658 252.192C356.956 251.979 357.324 251.872 357.762 251.872C358.348 251.872 358.791 252.064 359.09 252.448C359.399 252.832 359.554 253.371 359.554 254.064V260H357.922V254.4C357.922 254.08 357.852 253.829 357.714 253.648C357.586 253.456 357.378 253.36 357.09 253.36C356.802 253.36 356.562 253.472 356.37 253.696C356.188 253.92 356.098 254.235 356.098 254.64V260H354.45V254.4C354.45 254.08 354.386 253.829 354.258 253.648C354.13 253.456 353.922 253.36 353.634 253.36C353.346 253.36 353.106 253.472 352.914 253.696C352.722 253.92 352.626 254.235 352.626 254.64V260H350.994ZM364.988 260.192C364.23 260.192 363.553 260.021 362.956 259.68C362.358 259.339 361.889 258.859 361.548 258.24C361.206 257.611 361.036 256.875 361.036 256.032C361.036 255.189 361.206 254.459 361.548 253.84C361.889 253.211 362.358 252.725 362.956 252.384C363.553 252.043 364.236 251.872 365.004 251.872C365.772 251.872 366.449 252.043 367.036 252.384C367.633 252.725 368.097 253.211 368.428 253.84C368.769 254.459 368.94 255.189 368.94 256.032C368.94 256.875 368.769 257.611 368.428 258.24C368.086 258.859 367.617 259.339 367.02 259.68C366.433 260.021 365.756 260.192 364.988 260.192ZM364.988 258.576C365.393 258.576 365.766 258.485 366.108 258.304C366.449 258.123 366.721 257.845 366.924 257.472C367.137 257.088 367.244 256.608 367.244 256.032C367.244 255.445 367.137 254.965 366.924 254.592C366.721 254.219 366.449 253.941 366.108 253.76C365.777 253.579 365.409 253.488 365.004 253.488C364.598 253.488 364.225 253.579 363.884 253.76C363.542 253.941 363.265 254.219 363.052 254.592C362.849 254.965 362.748 255.445 362.748 256.032C362.748 256.907 362.966 257.552 363.404 257.968C363.852 258.373 364.38 258.576 364.988 258.576ZM375.445 260C374.667 260 374.048 259.813 373.589 259.44C373.131 259.056 372.901 258.379 372.901 257.408V253.504H370.901V252.064H372.085C372.629 252.064 372.949 251.797 373.045 251.264L373.285 249.984H374.597V252.064H377.733V253.504H374.597V257.376C374.597 257.792 374.688 258.085 374.869 258.256C375.061 258.416 375.387 258.496 375.845 258.496H377.701V260H375.445ZM384.015 250.848C383.642 250.848 383.327 250.731 383.071 250.496C382.826 250.251 382.703 249.952 382.703 249.6C382.703 249.248 382.826 248.955 383.071 248.72C383.327 248.485 383.642 248.368 384.015 248.368C384.399 248.368 384.714 248.485 384.959 248.72C385.215 248.955 385.343 249.248 385.343 249.6C385.343 249.952 385.215 250.251 384.959 250.496C384.714 250.731 384.399 250.848 384.015 250.848ZM380.831 260V258.528H383.327V254.064C383.327 253.712 383.156 253.536 382.815 253.536H381.055V252.064H383.119C383.78 252.064 384.26 252.219 384.559 252.528C384.868 252.827 385.023 253.307 385.023 253.968V258.528H387.519V260H380.831ZM393.769 260.192C393.011 260.192 392.334 260.021 391.737 259.68C391.139 259.339 390.67 258.859 390.329 258.24C389.987 257.611 389.817 256.875 389.817 256.032C389.817 255.189 389.987 254.459 390.329 253.84C390.67 253.211 391.139 252.725 391.737 252.384C392.334 252.043 393.017 251.872 393.785 251.872C394.553 251.872 395.23 252.043 395.817 252.384C396.414 252.725 396.878 253.211 397.209 253.84C397.55 254.459 397.721 255.189 397.721 256.032C397.721 256.875 397.55 257.611 397.209 258.24C396.867 258.859 396.398 259.339 395.801 259.68C395.214 260.021 394.537 260.192 393.769 260.192ZM393.769 258.576C394.174 258.576 394.547 258.485 394.889 258.304C395.23 258.123 395.502 257.845 395.705 257.472C395.918 257.088 396.025 256.608 396.025 256.032C396.025 255.445 395.918 254.965 395.705 254.592C395.502 254.219 395.23 253.941 394.889 253.76C394.558 253.579 394.19 253.488 393.785 253.488C393.379 253.488 393.006 253.579 392.665 253.76C392.323 253.941 392.046 254.219 391.833 254.592C391.63 254.965 391.529 255.445 391.529 256.032C391.529 256.907 391.747 257.552 392.185 257.968C392.633 258.373 393.161 258.576 393.769 258.576ZM399.811 260V252.064H401.283L401.427 253.248H401.507C401.72 252.864 402.051 252.539 402.499 252.272C402.947 252.005 403.464 251.872 404.051 251.872C405.021 251.872 405.752 252.165 406.243 252.752C406.733 253.339 406.979 254.203 406.979 255.344V260H405.283V255.552C405.283 254.891 405.144 254.379 404.867 254.016C404.589 253.653 404.152 253.472 403.555 253.472C402.968 253.472 402.477 253.669 402.083 254.064C401.699 254.459 401.507 255.029 401.507 255.776V260H399.811ZM413.02 260.192C411.975 260.192 411.143 259.947 410.524 259.456C409.906 258.965 409.554 258.315 409.468 257.504H411.212C411.276 257.877 411.463 258.181 411.772 258.416C412.092 258.651 412.514 258.768 413.036 258.768C413.538 258.768 413.922 258.667 414.188 258.464C414.466 258.251 414.604 258.005 414.604 257.728C414.604 257.323 414.439 257.045 414.108 256.896C413.788 256.747 413.314 256.635 412.684 256.56C412.14 256.496 411.644 256.373 411.196 256.192C410.759 256 410.412 255.744 410.156 255.424C409.9 255.093 409.772 254.683 409.772 254.192C409.772 253.499 410.044 252.939 410.588 252.512C411.132 252.085 411.89 251.872 412.86 251.872C413.831 251.872 414.583 252.091 415.116 252.528C415.65 252.965 415.959 253.563 416.044 254.32H414.412C414.37 254 414.204 253.749 413.916 253.568C413.628 253.376 413.271 253.28 412.844 253.28C412.407 253.28 412.06 253.365 411.804 253.536C411.548 253.696 411.42 253.909 411.42 254.176C411.42 254.752 412.039 255.104 413.276 255.232C413.863 255.296 414.386 255.408 414.844 255.568C415.303 255.717 415.666 255.957 415.932 256.288C416.199 256.608 416.332 257.061 416.332 257.648C416.343 258.128 416.204 258.56 415.916 258.944C415.639 259.328 415.25 259.632 414.748 259.856C414.258 260.08 413.682 260.192 413.02 260.192Z" fill="#3C3C3C"/>
<rect width="260.999" height="48" transform="translate(289 279)" fill="white"/>
<mask id="mask1_0_5138" style="mask-type:alpha" maskUnits="userSpaceOnUse" x="305" y="291" width="24" height="24">
<rect x="305" y="291" width="24" height="24" fill="#D9D9D9"/>
</mask>
<g mask="url(#mask1_0_5138)">
<path d="M307 312V310H316V298.825C315.567 298.675 315.192 298.442 314.875 298.125C314.558 297.808 314.325 297.433 314.175 297H311L314 304C314 304.833 313.658 305.542 312.975 306.125C312.292 306.708 311.467 307 310.5 307C309.533 307 308.708 306.708 308.025 306.125C307.342 305.542 307 304.833 307 304L310 297H308V295H314.175C314.375 294.417 314.733 293.938 315.25 293.563C315.767 293.188 316.35 293 317 293C317.65 293 318.233 293.188 318.75 293.563C319.267 293.938 319.625 294.417 319.825 295H326V297H324L327 304C327 304.833 326.658 305.542 325.975 306.125C325.292 306.708 324.467 307 323.5 307C322.533 307 321.708 306.708 321.025 306.125C320.342 305.542 320 304.833 320 304L323 297H319.825C319.675 297.433 319.442 297.808 319.125 298.125C318.808 298.442 318.433 298.675 318 298.825V310H327V312H307ZM321.625 304H325.375L323.5 299.65L321.625 304ZM308.625 304H312.375L310.5 299.65L308.625 304ZM317 297C317.283 297 317.521 296.904 317.713 296.713C317.904 296.521 318 296.283 318 296C318 295.717 317.904 295.479 317.713 295.288C317.521 295.096 317.283 295 317 295C316.717 295 316.479 295.096 316.288 295.288C316.096 295.479 316 295.717 316 296C316 296.283 316.096 296.521 316.288 296.713C316.479 296.904 316.717 297 317 297Z" fill="#3C3C3C"/>
</g>
<path d="M342.28 308V296.8H349.432V298.32H343.976V301.584H348.952V303.088H343.976V306.48H349.432V308H342.28ZM356.258 308C355.479 308 354.86 307.813 354.402 307.44C353.943 307.056 353.714 306.379 353.714 305.408V301.504H351.714V300.064H352.898C353.442 300.064 353.762 299.797 353.858 299.264L354.098 297.984H355.41V300.064H358.546V301.504H355.41V305.376C355.41 305.792 355.5 306.085 355.682 306.256C355.874 306.416 356.199 306.496 356.658 306.496H358.514V308H356.258ZM361.356 308V296.48H363.052V301.248C363.265 300.853 363.606 300.528 364.076 300.272C364.545 300.005 365.073 299.872 365.66 299.872C366.641 299.872 367.388 300.171 367.9 300.768C368.412 301.355 368.668 302.203 368.668 303.312V308H366.972V303.552C366.972 302.891 366.812 302.379 366.492 302.016C366.172 301.653 365.729 301.472 365.164 301.472C364.577 301.472 364.076 301.669 363.66 302.064C363.254 302.459 363.052 303.029 363.052 303.776V308H361.356ZM374.421 298.848C374.048 298.848 373.733 298.731 373.477 298.496C373.232 298.251 373.109 297.952 373.109 297.6C373.109 297.248 373.232 296.955 373.477 296.72C373.733 296.485 374.048 296.368 374.421 296.368C374.805 296.368 375.12 296.485 375.365 296.72C375.621 296.955 375.749 297.248 375.749 297.6C375.749 297.952 375.621 298.251 375.365 298.496C375.12 298.731 374.805 298.848 374.421 298.848ZM371.237 308V306.528H373.733V302.064C373.733 301.712 373.563 301.536 373.221 301.536H371.461V300.064H373.525C374.187 300.064 374.667 300.219 374.965 300.528C375.275 300.827 375.429 301.307 375.429 301.968V306.528H377.925V308H371.237ZM384.287 308.192C383.551 308.192 382.89 308.021 382.303 307.68C381.727 307.339 381.274 306.859 380.943 306.24C380.612 305.611 380.447 304.875 380.447 304.032C380.447 303.189 380.612 302.459 380.943 301.84C381.284 301.221 381.743 300.741 382.319 300.4C382.895 300.048 383.551 299.872 384.287 299.872C385.3 299.872 386.116 300.128 386.735 300.64C387.364 301.141 387.764 301.835 387.935 302.72H386.159C386.052 302.336 385.834 302.032 385.503 301.808C385.183 301.584 384.772 301.472 384.271 301.472C383.908 301.472 383.562 301.568 383.231 301.76C382.911 301.952 382.65 302.24 382.447 302.624C382.255 302.997 382.159 303.467 382.159 304.032C382.159 304.587 382.255 305.056 382.447 305.44C382.65 305.824 382.911 306.117 383.231 306.32C383.562 306.512 383.908 306.608 384.271 306.608C384.783 306.608 385.194 306.496 385.503 306.272C385.812 306.048 386.031 305.739 386.159 305.344H387.935C387.722 306.219 387.306 306.912 386.687 307.424C386.068 307.936 385.268 308.192 384.287 308.192ZM393.833 308.192C392.787 308.192 391.955 307.947 391.337 307.456C390.718 306.965 390.366 306.315 390.281 305.504H392.025C392.089 305.877 392.275 306.181 392.585 306.416C392.905 306.651 393.326 306.768 393.849 306.768C394.35 306.768 394.734 306.667 395.001 306.464C395.278 306.251 395.417 306.005 395.417 305.728C395.417 305.323 395.251 305.045 394.921 304.896C394.601 304.747 394.126 304.635 393.497 304.56C392.953 304.496 392.457 304.373 392.009 304.192C391.571 304 391.225 303.744 390.969 303.424C390.713 303.093 390.585 302.683 390.585 302.192C390.585 301.499 390.857 300.939 391.401 300.512C391.945 300.085 392.702 299.872 393.673 299.872C394.643 299.872 395.395 300.091 395.929 300.528C396.462 300.965 396.771 301.563 396.857 302.32H395.225C395.182 302 395.017 301.749 394.729 301.568C394.441 301.376 394.083 301.28 393.657 301.28C393.219 301.28 392.873 301.365 392.617 301.536C392.361 301.696 392.233 301.909 392.233 302.176C392.233 302.752 392.851 303.104 394.089 303.232C394.675 303.296 395.198 303.408 395.657 303.568C396.115 303.717 396.478 303.957 396.745 304.288C397.011 304.608 397.145 305.061 397.145 305.648C397.155 306.128 397.017 306.56 396.729 306.944C396.451 307.328 396.062 307.632 395.561 307.856C395.07 308.08 394.494 308.192 393.833 308.192Z" fill="#3C3C3C"/>
<mask id="mask2_0_5138" style="mask-type:alpha" maskUnits="userSpaceOnUse" x="305" y="339" width="24" height="24">
<rect x="305" y="339" width="24" height="24" fill="#D9D9D9"/>
</mask>
<g mask="url(#mask2_0_5138)">
<path d="M311 361V356.7C310.05 355.833 309.313 354.821 308.788 353.663C308.263 352.504 308 351.283 308 350C308 347.5 308.875 345.375 310.625 343.625C312.375 341.875 314.5 341 317 341C319.083 341 320.929 341.613 322.538 342.838C324.146 344.063 325.192 345.658 325.675 347.625L326.975 352.75C327.058 353.067 327 353.354 326.8 353.613C326.6 353.871 326.333 354 326 354H324V357C324 357.55 323.804 358.021 323.413 358.413C323.021 358.804 322.55 359 322 359H320V361H318V357H322V352H324.7L323.75 348.125C323.367 346.608 322.55 345.375 321.3 344.425C320.05 343.475 318.617 343 317 343C315.067 343 313.417 343.675 312.05 345.025C310.683 346.375 310 348.017 310 349.95C310 350.95 310.204 351.9 310.613 352.8C311.021 353.7 311.6 354.5 312.35 355.2L313 355.8V361H311ZM317 355C317.283 355 317.521 354.904 317.713 354.713C317.904 354.521 318 354.283 318 354C318 353.717 317.904 353.479 317.713 353.288C317.521 353.096 317.283 353 317 353C316.717 353 316.479 353.096 316.288 353.288C316.096 353.479 316 353.717 316 354C316 354.283 316.096 354.521 316.288 354.713C316.479 354.904 316.717 355 317 355ZM316.25 351.8H317.775C317.775 351.383 317.829 351.046 317.938 350.788C318.046 350.529 318.267 350.217 318.6 349.85C318.9 349.517 319.192 349.179 319.475 348.838C319.758 348.496 319.9 348.05 319.9 347.5C319.9 346.8 319.629 346.208 319.088 345.725C318.546 345.242 317.875 345 317.075 345C316.408 345 315.804 345.192 315.263 345.575C314.721 345.958 314.342 346.458 314.125 347.075L315.5 347.65C315.617 347.283 315.821 346.988 316.113 346.763C316.404 346.538 316.725 346.425 317.075 346.425C317.442 346.425 317.746 346.525 317.988 346.725C318.229 346.925 318.35 347.183 318.35 347.5C318.35 347.85 318.246 348.163 318.038 348.438C317.829 348.713 317.583 348.992 317.3 349.275C316.967 349.625 316.708 349.975 316.525 350.325C316.342 350.675 316.25 351.167 316.25 351.8Z" fill="#3C3C3C"/>
</g>
<path d="M342.136 356V344.8H345.928C346.781 344.8 347.485 344.949 348.04 345.248C348.595 345.536 349.005 345.936 349.272 346.448C349.539 346.96 349.672 347.547 349.672 348.208C349.672 348.869 349.539 349.456 349.272 349.968C349.005 350.48 348.595 350.885 348.04 351.184C347.485 351.472 346.781 351.616 345.928 351.616H343.832V356H342.136ZM343.832 350.096H345.848C346.573 350.096 347.101 349.925 347.432 349.584C347.773 349.243 347.944 348.784 347.944 348.208C347.944 347.643 347.773 347.189 347.432 346.848C347.101 346.496 346.573 346.32 345.848 346.32H343.832V350.096ZM351.762 356V344.48H353.458V349.248C353.671 348.853 354.012 348.528 354.482 348.272C354.951 348.005 355.479 347.872 356.066 347.872C357.047 347.872 357.794 348.171 358.306 348.768C358.818 349.355 359.074 350.203 359.074 351.312V356H357.378V351.552C357.378 350.891 357.218 350.379 356.898 350.016C356.578 349.653 356.135 349.472 355.57 349.472C354.983 349.472 354.482 349.669 354.066 350.064C353.66 350.459 353.458 351.029 353.458 351.776V356H351.762ZM364.828 346.848C364.454 346.848 364.14 346.731 363.884 346.496C363.638 346.251 363.516 345.952 363.516 345.6C363.516 345.248 363.638 344.955 363.884 344.72C364.14 344.485 364.454 344.368 364.828 344.368C365.212 344.368 365.526 344.485 365.772 344.72C366.028 344.955 366.156 345.248 366.156 345.6C366.156 345.952 366.028 346.251 365.772 346.496C365.526 346.731 365.212 346.848 364.828 346.848ZM361.644 356V354.528H364.14V350.064C364.14 349.712 363.969 349.536 363.628 349.536H361.868V348.064H363.932C364.593 348.064 365.073 348.219 365.372 348.528C365.681 348.827 365.836 349.307 365.836 349.968V354.528H368.332V356H361.644ZM370.869 356V354.528H373.525V346.48C373.525 346.128 373.355 345.952 373.013 345.952H371.093V344.48H373.317C373.936 344.48 374.405 344.645 374.725 344.976C375.056 345.296 375.221 345.765 375.221 346.384V354.528H377.893V356H370.869ZM384.175 356.192C383.418 356.192 382.74 356.021 382.143 355.68C381.546 355.339 381.076 354.859 380.735 354.24C380.394 353.611 380.223 352.875 380.223 352.032C380.223 351.189 380.394 350.459 380.735 349.84C381.076 349.211 381.546 348.725 382.143 348.384C382.74 348.043 383.423 347.872 384.191 347.872C384.959 347.872 385.636 348.043 386.223 348.384C386.82 348.725 387.284 349.211 387.615 349.84C387.956 350.459 388.127 351.189 388.127 352.032C388.127 352.875 387.956 353.611 387.615 354.24C387.274 354.859 386.804 355.339 386.207 355.68C385.62 356.021 384.943 356.192 384.175 356.192ZM384.175 354.576C384.58 354.576 384.954 354.485 385.295 354.304C385.636 354.123 385.908 353.845 386.111 353.472C386.324 353.088 386.431 352.608 386.431 352.032C386.431 351.445 386.324 350.965 386.111 350.592C385.908 350.219 385.636 349.941 385.295 349.76C384.964 349.579 384.596 349.488 384.191 349.488C383.786 349.488 383.412 349.579 383.071 349.76C382.73 349.941 382.452 350.219 382.239 350.592C382.036 350.965 381.935 351.445 381.935 352.032C381.935 352.907 382.154 353.552 382.591 353.968C383.039 354.373 383.567 354.576 384.175 354.576ZM393.833 356.192C392.787 356.192 391.955 355.947 391.337 355.456C390.718 354.965 390.366 354.315 390.281 353.504H392.025C392.089 353.877 392.275 354.181 392.585 354.416C392.905 354.651 393.326 354.768 393.849 354.768C394.35 354.768 394.734 354.667 395.001 354.464C395.278 354.251 395.417 354.005 395.417 353.728C395.417 353.323 395.251 353.045 394.921 352.896C394.601 352.747 394.126 352.635 393.497 352.56C392.953 352.496 392.457 352.373 392.009 352.192C391.571 352 391.225 351.744 390.969 351.424C390.713 351.093 390.585 350.683 390.585 350.192C390.585 349.499 390.857 348.939 391.401 348.512C391.945 348.085 392.702 347.872 393.673 347.872C394.643 347.872 395.395 348.091 395.929 348.528C396.462 348.965 396.771 349.563 396.857 350.32H395.225C395.182 350 395.017 349.749 394.729 349.568C394.441 349.376 394.083 349.28 393.657 349.28C393.219 349.28 392.873 349.365 392.617 349.536C392.361 349.696 392.233 349.909 392.233 350.176C392.233 350.752 392.851 351.104 394.089 351.232C394.675 351.296 395.198 351.408 395.657 351.568C396.115 351.717 396.478 351.957 396.745 352.288C397.011 352.608 397.145 353.061 397.145 353.648C397.155 354.128 397.017 354.56 396.729 354.944C396.451 355.328 396.062 355.632 395.561 355.856C395.07 356.08 394.494 356.192 393.833 356.192ZM403.363 356.192C402.605 356.192 401.928 356.021 401.331 355.68C400.733 355.339 400.264 354.859 399.923 354.24C399.581 353.611 399.411 352.875 399.411 352.032C399.411 351.189 399.581 350.459 399.923 349.84C400.264 349.211 400.733 348.725 401.331 348.384C401.928 348.043 402.611 347.872 403.379 347.872C404.147 347.872 404.824 348.043 405.411 348.384C406.008 348.725 406.472 349.211 406.803 349.84C407.144 350.459 407.315 351.189 407.315 352.032C407.315 352.875 407.144 353.611 406.803 354.24C406.461 354.859 405.992 355.339 405.395 355.68C404.808 356.021 404.131 356.192 403.363 356.192ZM403.363 354.576C403.768 354.576 404.141 354.485 404.483 354.304C404.824 354.123 405.096 353.845 405.299 353.472C405.512 353.088 405.619 352.608 405.619 352.032C405.619 351.445 405.512 350.965 405.299 350.592C405.096 350.219 404.824 349.941 404.483 349.76C404.152 349.579 403.784 349.488 403.379 349.488C402.973 349.488 402.6 349.579 402.259 349.76C401.917 349.941 401.64 350.219 401.427 350.592C401.224 350.965 401.123 351.445 401.123 352.032C401.123 352.907 401.341 353.552 401.779 353.968C402.227 354.373 402.755 354.576 403.363 354.576ZM409.26 359.52V348.064H410.732L410.86 349.28H410.956C411.17 348.885 411.49 348.555 411.916 348.288C412.354 348.011 412.871 347.872 413.468 347.872C414.087 347.872 414.652 348.032 415.164 348.352C415.676 348.661 416.082 349.125 416.38 349.744C416.69 350.352 416.844 351.115 416.844 352.032C416.844 352.939 416.684 353.701 416.364 354.32C416.055 354.939 415.634 355.408 415.1 355.728C414.567 356.037 413.97 356.192 413.308 356.192C412.722 356.192 412.231 356.075 411.836 355.84C411.442 355.605 411.148 355.339 410.956 355.04V359.52H409.26ZM413.02 354.576C413.618 354.576 414.114 354.363 414.508 353.936C414.914 353.509 415.116 352.869 415.116 352.016C415.116 351.163 414.914 350.528 414.508 350.112C414.114 349.696 413.618 349.488 413.02 349.488C412.412 349.488 411.906 349.701 411.5 350.128C411.106 350.544 410.908 351.179 410.908 352.032C410.908 352.875 411.106 353.509 411.5 353.936C411.906 354.363 412.412 354.576 413.02 354.576ZM418.918 356V344.48H420.614V349.248C420.827 348.853 421.169 348.528 421.638 348.272C422.107 348.005 422.635 347.872 423.222 347.872C424.203 347.872 424.95 348.171 425.462 348.768C425.974 349.355 426.23 350.203 426.23 351.312V356H424.534V351.552C424.534 350.891 424.374 350.379 424.054 350.016C423.734 349.653 423.291 349.472 422.726 349.472C422.139 349.472 421.638 349.669 421.222 350.064C420.817 350.459 420.614 351.029 420.614 351.776V356H418.918ZM429.632 359.52L431.52 355.344H431.056L427.968 348.064H429.808L432.176 353.872L434.688 348.064H436.464L431.424 359.52H429.632Z" fill="#3C3C3C"/>
<mask id="mask3_0_5138" style="mask-type:alpha" maskUnits="userSpaceOnUse" x="305" y="387" width="24" height="24">
<rect x="305" y="387" width="24" height="24" fill="#3C3C3C"/>
</mask>
<g mask="url(#mask3_0_5138)">
<path d="M306.15 407L309.6 400.1C309.767 399.767 310.004 399.5 310.313 399.3C310.621 399.1 310.967 399 311.35 399C311.75 399 312.117 399.104 312.45 399.312C312.783 399.521 313.025 399.817 313.175 400.2L313.85 401.85C313.883 401.95 313.958 401.996 314.075 401.988C314.192 401.979 314.267 401.925 314.3 401.825L316.45 394.65C316.683 393.85 317.129 393.208 317.788 392.725C318.446 392.242 319.192 392 320.025 392C320.842 392 321.571 392.237 322.213 392.712C322.854 393.188 323.3 393.808 323.55 394.575L327.875 407H325.75L321.65 395.2C321.517 394.817 321.308 394.521 321.025 394.312C320.742 394.104 320.408 394 320.025 394C319.642 394 319.304 394.108 319.013 394.325C318.721 394.542 318.508 394.842 318.375 395.225L316.225 402.4C316.075 402.867 315.804 403.25 315.413 403.55C315.021 403.85 314.575 404 314.075 404C313.625 404 313.208 403.879 312.825 403.637C312.442 403.396 312.167 403.058 312 402.625L311.325 400.975L308.375 407H306.15ZM311 397C310.167 397 309.458 396.704 308.875 396.113C308.292 395.521 308 394.817 308 394C308 393.167 308.292 392.458 308.875 391.875C309.458 391.292 310.167 391 311 391C311.833 391 312.542 391.292 313.125 391.875C313.708 392.458 314 393.167 314 394C314 394.817 313.708 395.521 313.125 396.113C312.542 396.704 311.833 397 311 397ZM311 395C311.283 395 311.521 394.904 311.713 394.713C311.904 394.521 312 394.283 312 394C312 393.717 311.904 393.479 311.713 393.288C311.521 393.096 311.283 393 311 393C310.717 393 310.479 393.096 310.288 393.288C310.096 393.479 310 393.717 310 394C310 394.283 310.096 394.521 310.288 394.713C310.479 394.904 310.717 395 311 395Z" fill="#1C1B1F"/>
</g>
<path d="M341.448 404L344.792 392.8H346.808L350.152 404H348.312L347.56 401.312H344.04L343.288 404H341.448ZM345.752 395.2L344.424 399.952H347.176L345.848 395.2H345.752ZM355.49 404.192C354.722 404.192 354.044 404.021 353.458 403.68C352.871 403.328 352.412 402.843 352.082 402.224C351.751 401.605 351.586 400.885 351.586 400.064C351.586 399.232 351.746 398.501 352.066 397.872C352.396 397.243 352.855 396.752 353.442 396.4C354.039 396.048 354.727 395.872 355.506 395.872C356.274 395.872 356.935 396.048 357.49 396.4C358.044 396.741 358.471 397.2 358.77 397.776C359.079 398.352 359.234 398.987 359.234 399.68C359.234 399.787 359.234 399.904 359.234 400.032C359.234 400.149 359.228 400.283 359.218 400.432H353.25C353.303 401.168 353.543 401.728 353.97 402.112C354.396 402.485 354.898 402.672 355.474 402.672C355.975 402.672 356.37 402.571 356.658 402.368C356.956 402.155 357.175 401.867 357.314 401.504H359.026C358.834 402.261 358.434 402.901 357.826 403.424C357.218 403.936 356.439 404.192 355.49 404.192ZM355.49 397.344C354.967 397.344 354.503 397.504 354.098 397.824C353.692 398.133 353.431 398.571 353.314 399.136H357.538C357.495 398.603 357.287 398.171 356.914 397.84C356.54 397.509 356.066 397.344 355.49 397.344ZM365.052 404.192C364.006 404.192 363.174 403.947 362.556 403.456C361.937 402.965 361.585 402.315 361.5 401.504H363.244C363.308 401.877 363.494 402.181 363.804 402.416C364.124 402.651 364.545 402.768 365.068 402.768C365.569 402.768 365.953 402.667 366.22 402.464C366.497 402.251 366.636 402.005 366.636 401.728C366.636 401.323 366.47 401.045 366.14 400.896C365.82 400.747 365.345 400.635 364.716 400.56C364.172 400.496 363.676 400.373 363.228 400.192C362.79 400 362.444 399.744 362.188 399.424C361.932 399.093 361.804 398.683 361.804 398.192C361.804 397.499 362.076 396.939 362.62 396.512C363.164 396.085 363.921 395.872 364.892 395.872C365.862 395.872 366.614 396.091 367.148 396.528C367.681 396.965 367.99 397.563 368.076 398.32H366.444C366.401 398 366.236 397.749 365.948 397.568C365.66 397.376 365.302 397.28 364.876 397.28C364.438 397.28 364.092 397.365 363.836 397.536C363.58 397.696 363.452 397.909 363.452 398.176C363.452 398.752 364.07 399.104 365.308 399.232C365.894 399.296 366.417 399.408 366.876 399.568C367.334 399.717 367.697 399.957 367.964 400.288C368.23 400.608 368.364 401.061 368.364 401.648C368.374 402.128 368.236 402.56 367.948 402.944C367.67 403.328 367.281 403.632 366.78 403.856C366.289 404.08 365.713 404.192 365.052 404.192ZM375.445 404C374.667 404 374.048 403.813 373.589 403.44C373.131 403.056 372.901 402.379 372.901 401.408V397.504H370.901V396.064H372.085C372.629 396.064 372.949 395.797 373.045 395.264L373.285 393.984H374.597V396.064H377.733V397.504H374.597V401.376C374.597 401.792 374.688 402.085 374.869 402.256C375.061 402.416 375.387 402.496 375.845 402.496H377.701V404H375.445ZM380.543 404V392.48H382.239V397.248C382.452 396.853 382.794 396.528 383.263 396.272C383.732 396.005 384.26 395.872 384.847 395.872C385.828 395.872 386.575 396.171 387.087 396.768C387.599 397.355 387.855 398.203 387.855 399.312V404H386.159V399.552C386.159 398.891 385.999 398.379 385.679 398.016C385.359 397.653 384.916 397.472 384.351 397.472C383.764 397.472 383.263 397.669 382.847 398.064C382.442 398.459 382.239 399.029 382.239 399.776V404H380.543ZM393.865 404.192C393.097 404.192 392.419 404.021 391.833 403.68C391.246 403.328 390.787 402.843 390.457 402.224C390.126 401.605 389.961 400.885 389.961 400.064C389.961 399.232 390.121 398.501 390.441 397.872C390.771 397.243 391.23 396.752 391.817 396.4C392.414 396.048 393.102 395.872 393.881 395.872C394.649 395.872 395.31 396.048 395.865 396.4C396.419 396.741 396.846 397.2 397.145 397.776C397.454 398.352 397.609 398.987 397.609 399.68C397.609 399.787 397.609 399.904 397.609 400.032C397.609 400.149 397.603 400.283 397.593 400.432H391.625C391.678 401.168 391.918 401.728 392.345 402.112C392.771 402.485 393.273 402.672 393.849 402.672C394.35 402.672 394.745 402.571 395.033 402.368C395.331 402.155 395.55 401.867 395.689 401.504H397.401C397.209 402.261 396.809 402.901 396.201 403.424C395.593 403.936 394.814 404.192 393.865 404.192ZM393.865 397.344C393.342 397.344 392.878 397.504 392.473 397.824C392.067 398.133 391.806 398.571 391.689 399.136H395.913C395.87 398.603 395.662 398.171 395.289 397.84C394.915 397.509 394.441 397.344 393.865 397.344ZM404.227 404C403.448 404 402.829 403.813 402.371 403.44C401.912 403.056 401.683 402.379 401.683 401.408V397.504H399.683V396.064H400.867C401.411 396.064 401.731 395.797 401.827 395.264L402.067 393.984H403.379V396.064H406.515V397.504H403.379V401.376C403.379 401.792 403.469 402.085 403.651 402.256C403.843 402.416 404.168 402.496 404.627 402.496H406.483V404H404.227ZM412.796 394.848C412.423 394.848 412.108 394.731 411.852 394.496C411.607 394.251 411.484 393.952 411.484 393.6C411.484 393.248 411.607 392.955 411.852 392.72C412.108 392.485 412.423 392.368 412.796 392.368C413.18 392.368 413.495 392.485 413.74 392.72C413.996 392.955 414.124 393.248 414.124 393.6C414.124 393.952 413.996 394.251 413.74 394.496C413.495 394.731 413.18 394.848 412.796 394.848ZM409.612 404V402.528H412.108V398.064C412.108 397.712 411.938 397.536 411.596 397.536H409.836V396.064H411.9C412.562 396.064 413.042 396.219 413.34 396.528C413.65 396.827 413.804 397.307 413.804 397.968V402.528H416.3V404H409.612ZM422.662 404.192C421.926 404.192 421.265 404.021 420.678 403.68C420.102 403.339 419.649 402.859 419.318 402.24C418.987 401.611 418.822 400.875 418.822 400.032C418.822 399.189 418.987 398.459 419.318 397.84C419.659 397.221 420.118 396.741 420.694 396.4C421.27 396.048 421.926 395.872 422.662 395.872C423.675 395.872 424.491 396.128 425.11 396.64C425.739 397.141 426.139 397.835 426.31 398.72H424.534C424.427 398.336 424.209 398.032 423.878 397.808C423.558 397.584 423.147 397.472 422.646 397.472C422.283 397.472 421.937 397.568 421.606 397.76C421.286 397.952 421.025 398.24 420.822 398.624C420.63 398.997 420.534 399.467 420.534 400.032C420.534 400.587 420.63 401.056 420.822 401.44C421.025 401.824 421.286 402.117 421.606 402.32C421.937 402.512 422.283 402.608 422.646 402.608C423.158 402.608 423.569 402.496 423.878 402.272C424.187 402.048 424.406 401.739 424.534 401.344H426.31C426.097 402.219 425.681 402.912 425.062 403.424C424.443 403.936 423.643 404.192 422.662 404.192Z" fill="#3C3C3C"/>
<mask id="mask4_0_5138" style="mask-type:alpha" maskUnits="userSpaceOnUse" x="305" y="435" width="24" height="24">
<rect x="305" y="435" width="24" height="24" fill="#D9D9D9"/>
</mask>
<g mask="url(#mask4_0_5138)">
<path d="M306 455V452.2C306 451.633 306.146 451.113 306.438 450.637C306.729 450.162 307.117 449.8 307.6 449.55C308.633 449.033 309.683 448.646 310.75 448.387C311.817 448.129 312.9 448 314 448C315.1 448 316.183 448.129 317.25 448.387C318.317 448.646 319.367 449.033 320.4 449.55C320.883 449.8 321.271 450.162 321.563 450.637C321.854 451.113 322 451.633 322 452.2V455H306ZM324 455V452C324 451.267 323.796 450.562 323.388 449.887C322.979 449.212 322.4 448.633 321.65 448.15C322.5 448.25 323.3 448.421 324.05 448.663C324.8 448.904 325.5 449.2 326.15 449.55C326.75 449.883 327.208 450.254 327.525 450.663C327.842 451.071 328 451.517 328 452V455H324ZM314 447C312.9 447 311.958 446.608 311.175 445.825C310.392 445.042 310 444.1 310 443C310 441.9 310.392 440.958 311.175 440.175C311.958 439.392 312.9 439 314 439C315.1 439 316.042 439.392 316.825 440.175C317.608 440.958 318 441.9 318 443C318 444.1 317.608 445.042 316.825 445.825C316.042 446.608 315.1 447 314 447ZM324 443C324 444.1 323.608 445.042 322.825 445.825C322.042 446.608 321.1 447 320 447C319.817 447 319.583 446.979 319.3 446.938C319.017 446.896 318.783 446.85 318.6 446.8C319.05 446.267 319.396 445.675 319.638 445.025C319.879 444.375 320 443.7 320 443C320 442.3 319.879 441.625 319.638 440.975C319.396 440.325 319.05 439.733 318.6 439.2C318.833 439.117 319.067 439.062 319.3 439.038C319.533 439.013 319.767 439 320 439C321.1 439 322.042 439.392 322.825 440.175C323.608 440.958 324 441.9 324 443ZM308 453H320V452.2C320 452.017 319.954 451.85 319.863 451.7C319.771 451.55 319.65 451.433 319.5 451.35C318.6 450.9 317.692 450.563 316.775 450.338C315.858 450.113 314.933 450 314 450C313.067 450 312.142 450.113 311.225 450.338C310.308 450.563 309.4 450.9 308.5 451.35C308.35 451.433 308.229 451.55 308.138 451.7C308.046 451.85 308 452.017 308 452.2V453ZM314 445C314.55 445 315.021 444.804 315.413 444.412C315.804 444.021 316 443.55 316 443C316 442.45 315.804 441.979 315.413 441.588C315.021 441.196 314.55 441 314 441C313.45 441 312.979 441.196 312.588 441.588C312.196 441.979 312 442.45 312 443C312 443.55 312.196 444.021 312.588 444.412C312.979 444.804 313.45 445 314 445Z" fill="#3C3C3C"/>
</g>
<path d="M342.2 452V440.8H345.864C346.739 440.8 347.459 440.949 348.024 441.248C348.6 441.547 349.027 441.952 349.304 442.464C349.592 442.965 349.736 443.536 349.736 444.176C349.736 444.901 349.549 445.547 349.176 446.112C348.813 446.667 348.253 447.072 347.496 447.328L349.848 452H347.88L345.736 447.568H343.896V452H342.2ZM343.896 446.032H345.768C346.536 446.032 347.096 445.861 347.448 445.52C347.811 445.179 347.992 444.731 347.992 444.176C347.992 443.611 347.816 443.163 347.464 442.832C347.112 442.491 346.541 442.32 345.752 442.32H343.896V446.032ZM355.49 452.192C354.722 452.192 354.044 452.021 353.458 451.68C352.871 451.328 352.412 450.843 352.082 450.224C351.751 449.605 351.586 448.885 351.586 448.064C351.586 447.232 351.746 446.501 352.066 445.872C352.396 445.243 352.855 444.752 353.442 444.4C354.039 444.048 354.727 443.872 355.506 443.872C356.274 443.872 356.935 444.048 357.49 444.4C358.044 444.741 358.471 445.2 358.77 445.776C359.079 446.352 359.234 446.987 359.234 447.68C359.234 447.787 359.234 447.904 359.234 448.032C359.234 448.149 359.228 448.283 359.218 448.432H353.25C353.303 449.168 353.543 449.728 353.97 450.112C354.396 450.485 354.898 450.672 355.474 450.672C355.975 450.672 356.37 450.571 356.658 450.368C356.956 450.155 357.175 449.867 357.314 449.504H359.026C358.834 450.261 358.434 450.901 357.826 451.424C357.218 451.936 356.439 452.192 355.49 452.192ZM355.49 445.344C354.967 445.344 354.503 445.504 354.098 445.824C353.692 446.133 353.431 446.571 353.314 447.136H357.538C357.495 446.603 357.287 446.171 356.914 445.84C356.54 445.509 356.066 445.344 355.49 445.344ZM361.276 452V450.528H363.932V442.48C363.932 442.128 363.761 441.952 363.42 441.952H361.5V440.48H363.724C364.342 440.48 364.812 440.645 365.132 440.976C365.462 441.296 365.628 441.765 365.628 442.384V450.528H368.3V452H361.276ZM373.861 452.192C373.232 452.192 372.704 452.085 372.277 451.872C371.851 451.648 371.531 451.355 371.317 450.992C371.104 450.619 370.997 450.213 370.997 449.776C370.997 448.997 371.28 448.389 371.845 447.952C372.421 447.515 373.232 447.296 374.277 447.296H376.325V447.12C376.325 445.925 375.771 445.328 374.661 445.328C374.203 445.328 373.813 445.429 373.493 445.632C373.184 445.824 372.976 446.139 372.869 446.576H371.173C371.259 445.744 371.616 445.088 372.245 444.608C372.885 444.117 373.691 443.872 374.661 443.872C375.835 443.872 376.688 444.16 377.221 444.736C377.755 445.312 378.021 446.107 378.021 447.12V452H376.581L376.437 450.832H376.325C376.091 451.205 375.797 451.525 375.445 451.792C375.093 452.059 374.565 452.192 373.861 452.192ZM374.181 450.768C374.875 450.768 375.392 450.56 375.733 450.144C376.085 449.717 376.277 449.179 376.309 448.528H374.453C373.845 448.528 373.413 448.629 373.157 448.832C372.912 449.024 372.789 449.296 372.789 449.648C372.789 450 372.912 450.277 373.157 450.48C373.413 450.672 373.755 450.768 374.181 450.768ZM385.039 452C384.26 452 383.642 451.813 383.183 451.44C382.724 451.056 382.495 450.379 382.495 449.408V445.504H380.495V444.064H381.679C382.223 444.064 382.543 443.797 382.639 443.264L382.879 441.984H384.191V444.064H387.327V445.504H384.191V449.376C384.191 449.792 384.282 450.085 384.463 450.256C384.655 450.416 384.98 450.496 385.439 450.496H387.295V452H385.039ZM393.609 442.848C393.235 442.848 392.921 442.731 392.665 442.496C392.419 442.251 392.297 441.952 392.297 441.6C392.297 441.248 392.419 440.955 392.665 440.72C392.921 440.485 393.235 440.368 393.609 440.368C393.993 440.368 394.307 440.485 394.553 440.72C394.809 440.955 394.937 441.248 394.937 441.6C394.937 441.952 394.809 442.251 394.553 442.496C394.307 442.731 393.993 442.848 393.609 442.848ZM390.425 452V450.528H392.921V446.064C392.921 445.712 392.75 445.536 392.409 445.536H390.649V444.064H392.713C393.374 444.064 393.854 444.219 394.153 444.528C394.462 444.827 394.617 445.307 394.617 445.968V450.528H397.113V452H390.425ZM403.363 452.192C402.605 452.192 401.928 452.021 401.331 451.68C400.733 451.339 400.264 450.859 399.923 450.24C399.581 449.611 399.411 448.875 399.411 448.032C399.411 447.189 399.581 446.459 399.923 445.84C400.264 445.211 400.733 444.725 401.331 444.384C401.928 444.043 402.611 443.872 403.379 443.872C404.147 443.872 404.824 444.043 405.411 444.384C406.008 444.725 406.472 445.211 406.803 445.84C407.144 446.459 407.315 447.189 407.315 448.032C407.315 448.875 407.144 449.611 406.803 450.24C406.461 450.859 405.992 451.339 405.395 451.68C404.808 452.021 404.131 452.192 403.363 452.192ZM403.363 450.576C403.768 450.576 404.141 450.485 404.483 450.304C404.824 450.123 405.096 449.845 405.299 449.472C405.512 449.088 405.619 448.608 405.619 448.032C405.619 447.445 405.512 446.965 405.299 446.592C405.096 446.219 404.824 445.941 404.483 445.76C404.152 445.579 403.784 445.488 403.379 445.488C402.973 445.488 402.6 445.579 402.259 445.76C401.917 445.941 401.64 446.219 401.427 446.592C401.224 446.965 401.123 447.445 401.123 448.032C401.123 448.907 401.341 449.552 401.779 449.968C402.227 450.373 402.755 450.576 403.363 450.576ZM409.404 452V444.064H410.876L411.02 445.248H411.1C411.314 444.864 411.644 444.539 412.092 444.272C412.54 444.005 413.058 443.872 413.644 443.872C414.615 443.872 415.346 444.165 415.836 444.752C416.327 445.339 416.572 446.203 416.572 447.344V452H414.876V447.552C414.876 446.891 414.738 446.379 414.46 446.016C414.183 445.653 413.746 445.472 413.148 445.472C412.562 445.472 412.071 445.669 411.676 446.064C411.292 446.459 411.1 447.029 411.1 447.776V452H409.404ZM421.83 452.192C421.201 452.192 420.673 452.085 420.246 451.872C419.819 451.648 419.499 451.355 419.286 450.992C419.073 450.619 418.966 450.213 418.966 449.776C418.966 448.997 419.249 448.389 419.814 447.952C420.39 447.515 421.201 447.296 422.246 447.296H424.294V447.12C424.294 445.925 423.739 445.328 422.63 445.328C422.171 445.328 421.782 445.429 421.462 445.632C421.153 445.824 420.945 446.139 420.838 446.576H419.142C419.227 445.744 419.585 445.088 420.214 444.608C420.854 444.117 421.659 443.872 422.63 443.872C423.803 443.872 424.657 444.16 425.19 444.736C425.723 445.312 425.99 446.107 425.99 447.12V452H424.55L424.406 450.832H424.294C424.059 451.205 423.766 451.525 423.414 451.792C423.062 452.059 422.534 452.192 421.83 452.192ZM422.15 450.768C422.843 450.768 423.361 450.56 423.702 450.144C424.054 449.717 424.246 449.179 424.278 448.528H422.422C421.814 448.528 421.382 448.629 421.126 448.832C420.881 449.024 420.758 449.296 420.758 449.648C420.758 450 420.881 450.277 421.126 450.48C421.382 450.672 421.723 450.768 422.15 450.768ZM428.432 452V450.528H431.088V442.48C431.088 442.128 430.917 441.952 430.576 441.952H428.656V440.48H430.88C431.498 440.48 431.968 440.645 432.288 440.976C432.618 441.296 432.784 441.765 432.784 442.384V450.528H435.456V452H428.432Z" fill="#3C3C3C"/>
</g>
<rect x="541.999" y="247" width="4" height="64" rx="2" fill="#737373"/>
</g>
<defs>
<filter id="filter0_d_0_5138" x="259" y="207" width="321" height="300" filterUnits="userSpaceOnUse" color-interpolation-filters="sRGB">
<feFlood flood-opacity="0" result="BackgroundImageFix"/>
<feColorMatrix in="SourceAlpha" type="matrix" values="0 0 0 0 0 0 0 0 0 0 0 0 0 0 0 0 0 0 127 0" result="hardAlpha"/>
<feOffset dy="6"/>
<feGaussianBlur stdDeviation="15"/>
<feComposite in2="hardAlpha" operator="out"/>
<feColorMatrix type="matrix" values="0 0 0 0 0.136068 0 0 0 0 0.136068 0 0 0 0 0.136068 0 0 0 0.15 0"/>
<feBlend mode="normal" in2="BackgroundImageFix" result="effect1_dropShadow_0_5138"/>
<feBlend mode="normal" in="SourceGraphic" in2="effect1_dropShadow_0_5138" result="shape"/>
</filter>
<clipPath id="clip0_0_5138">
<rect x="289" y="231" width="260.999" height="240" rx="10" fill="white"/>
</clipPath>
</defs>
</svg>
