<svg width="120" height="32" viewBox="0 0 120 32" fill="none" xmlns="http://www.w3.org/2000/svg">
<path d="M57.0339 8.25607H59.851V10.7436H59.9181C59.9851 10.5195 60.1528 10.2394 60.4211 9.90321C60.7118 9.56706 61.0695 9.25332 61.4943 8.96199C61.9414 8.64825 62.4557 8.39053 63.037 8.18884C63.6407 7.96474 64.3002 7.85269 65.0157 7.85269C66.2006 7.85269 67.1955 8.0992 68.0004 8.59222C68.8053 9.08525 69.4649 9.82478 69.9791 10.8108C70.4934 9.82478 71.22 9.08525 72.159 8.59222C73.098 8.0992 74.0482 7.85269 75.0096 7.85269C76.2393 7.85269 77.2454 8.05438 78.028 8.45776C78.8105 8.86115 79.4253 9.39899 79.8725 10.0713C80.3196 10.7212 80.6215 11.4719 80.778 12.3235C80.9568 13.1527 81.0463 14.0155 81.0463 14.9119V24.1896H78.028V15.3152C78.028 14.7102 77.9832 14.1275 77.8938 13.5673C77.8267 13.007 77.6702 12.514 77.4243 12.0882C77.1784 11.6624 76.8318 11.3263 76.3847 11.0797C75.9375 10.8108 75.345 10.6764 74.6072 10.6764C73.1539 10.6764 72.1143 11.1246 71.4883 12.021C70.8623 12.9174 70.5492 14.0715 70.5492 15.4833V24.1896H67.5309V15.8531C67.5309 15.0911 67.4862 14.3964 67.3968 13.769C67.3297 13.1415 67.1732 12.6036 66.9273 12.1554C66.7037 11.6848 66.3683 11.3263 65.9212 11.0797C65.4963 10.8108 64.915 10.6764 64.1772 10.6764C63.6406 10.6764 63.1152 10.7884 62.601 11.0125C62.1091 11.2142 61.6732 11.5279 61.2931 11.9537C60.913 12.3795 60.6112 12.9286 60.3876 13.6009C60.164 14.2508 60.0522 15.0239 60.0522 15.9203V24.1896H57.0339V8.25607Z" fill="#5C08EC"/>
<path d="M39.7103 10.2058C40.5599 9.4214 41.5436 8.83874 42.6615 8.45776C43.7794 8.05438 44.8973 7.85269 46.0152 7.85269C47.1778 7.85269 48.1727 7.99836 49 8.28969C49.8496 8.58102 50.5427 8.9732 51.0793 9.46622C51.6158 9.95924 52.0071 10.5307 52.253 11.1806C52.5213 11.8081 52.6555 12.4692 52.6555 13.1639V21.2987C52.6555 21.859 52.6667 22.3744 52.689 22.845C52.7114 23.3156 52.7449 23.7638 52.7896 24.1896H50.1067C50.0396 23.3829 50.0061 22.5761 50.0061 21.7694H49.939C49.2683 22.8002 48.4746 23.5285 47.5579 23.9543C46.6412 24.3801 45.5792 24.593 44.3719 24.593C43.6341 24.593 42.9298 24.4922 42.2591 24.2905C41.5883 24.0888 40.9958 23.7863 40.4816 23.3829C39.9897 22.9795 39.5985 22.4865 39.3078 21.9038C39.0172 21.2987 38.8718 20.604 38.8718 19.8197C38.8718 18.7888 39.0954 17.926 39.5426 17.2313C40.0121 16.5366 40.6381 15.9763 41.4206 15.5506C42.2255 15.1024 43.1534 14.7886 44.2042 14.6093C45.2774 14.4076 46.4176 14.3068 47.625 14.3068H49.8384V13.6345C49.8384 13.2311 49.7601 12.8277 49.6036 12.4243C49.4471 12.021 49.2124 11.6624 48.8994 11.3487C48.5863 11.0125 48.1951 10.7548 47.7256 10.5755C47.2561 10.3738 46.6971 10.273 46.0487 10.273C45.4674 10.273 44.9532 10.329 44.506 10.4411C44.0812 10.5531 43.69 10.6988 43.3322 10.8781C42.9745 11.0349 42.6503 11.2254 42.3597 11.4495C42.069 11.6736 41.7895 11.8865 41.5213 12.0882L39.7103 10.2058ZM48.2286 16.5254C47.5132 16.5254 46.7754 16.5702 46.0152 16.6599C45.2774 16.7271 44.5955 16.8727 43.9694 17.0968C43.3658 17.321 42.8627 17.6347 42.4603 18.0381C42.0802 18.4415 41.8902 18.9569 41.8902 19.5844C41.8902 20.5032 42.192 21.1643 42.7957 21.5677C43.4217 21.971 44.2601 22.1727 45.3109 22.1727C46.1382 22.1727 46.8424 22.0383 47.4237 21.7694C48.005 21.478 48.4746 21.1083 48.8323 20.6601C49.19 20.2119 49.4471 19.7188 49.6036 19.181C49.7601 18.6207 49.8384 18.0717 49.8384 17.5338V16.5254H48.2286Z" fill="#5C08EC"/>
<path d="M22.1789 16.2229C22.1789 17.0296 22.3018 17.7804 22.5478 18.4751C22.7937 19.1474 23.1403 19.73 23.5874 20.2231C24.0346 20.6937 24.5823 21.0746 25.2307 21.366C25.8791 21.6349 26.6057 21.7694 27.4106 21.7694C28.2155 21.7694 28.9421 21.6349 29.5905 21.366C30.2389 21.0746 30.7867 20.6937 31.2338 20.2231C31.681 19.73 32.0275 19.1474 32.2735 18.4751C32.5194 17.7804 32.6424 17.0296 32.6424 16.2229C32.6424 15.4161 32.5194 14.6766 32.2735 14.0043C32.0275 13.3095 31.681 12.7269 31.2338 12.2563C30.7867 11.7633 30.2389 11.3823 29.5905 11.1134C28.9421 10.822 28.2155 10.6764 27.4106 10.6764C26.6057 10.6764 25.8791 10.822 25.2307 11.1134C24.5823 11.3823 24.0346 11.7633 23.5874 12.2563C23.1403 12.7269 22.7937 13.3095 22.5478 14.0043C22.3018 14.6766 22.1789 15.4161 22.1789 16.2229ZM18.9593 16.2229C18.9593 15.0575 19.1717 13.9706 19.5965 12.9622C20.0437 11.9537 20.6474 11.0685 21.4075 10.3066C22.1677 9.54465 23.062 8.95079 24.0905 8.52499C25.1189 8.07679 26.2257 7.85269 27.4106 7.85269C28.5956 7.85269 29.7023 8.07679 30.7308 8.52499C31.7592 8.95079 32.6535 9.54465 33.4137 10.3066C34.1739 11.0685 34.7664 11.9537 35.1912 12.9622C35.6383 13.9706 35.8619 15.0575 35.8619 16.2229C35.8619 17.3882 35.6383 18.4863 35.1912 19.5171C34.7664 20.5256 34.1739 21.4108 33.4137 22.1727C32.6535 22.9123 31.7592 23.5061 30.7308 23.9543C29.7023 24.3801 28.5956 24.593 27.4106 24.593C26.2257 24.593 25.1189 24.3801 24.0905 23.9543C23.062 23.5061 22.1677 22.9123 21.4075 22.1727C20.6474 21.4108 20.0437 20.5256 19.5965 19.5171C19.1717 18.4863 18.9593 17.3882 18.9593 16.2229Z" fill="#5C08EC"/>
<path d="M0 0.390137H8.35068C9.87102 0.390137 11.1231 0.603032 12.1068 1.02882C13.0906 1.4322 13.8619 1.95884 14.4209 2.60873C15.0022 3.23622 15.4046 3.95334 15.6282 4.7601C15.8518 5.54445 15.9635 6.3064 15.9635 7.04593C15.9635 7.80787 15.8294 8.54741 15.5611 9.26453C15.2928 9.95924 14.9015 10.5979 14.3873 11.1806C13.8954 11.7408 13.2806 12.2227 12.5428 12.626C11.8273 13.007 11.0224 13.2423 10.1281 13.332L16.869 24.1896H12.8446L6.80798 13.7017H3.21954V24.1896H0V0.390137ZM3.21954 10.8781H7.44518C8.07121 10.8781 8.68605 10.8332 9.28971 10.7436C9.91573 10.6315 10.4635 10.4411 10.933 10.1721C11.4249 9.90321 11.8162 9.52224 12.1068 9.02922C12.3975 8.51379 12.5428 7.85269 12.5428 7.04593C12.5428 6.23917 12.3975 5.58927 12.1068 5.09625C11.8162 4.58082 11.4249 4.18864 10.933 3.91972C10.4635 3.6508 9.91573 3.47152 9.28971 3.38188C8.68605 3.26983 8.07121 3.21381 7.44518 3.21381H3.21954V10.8781Z" fill="#5C08EC"/>
<path d="M106.374 31.3482L110.299 22.7061H109.366L103.06 8.25963H105.988L111.232 20.6423L116.765 8.25963H119.596L109.205 31.3482H106.374Z" fill="#5C08EC"/>
<path d="M86.3112 24.2539V21.9322H91.7482V4.16431C91.7482 3.62687 91.4801 3.35815 90.9439 3.35815H86.8903V1.03639H91.5873C92.5096 1.03639 93.2174 1.28362 93.7106 1.77806C94.2039 2.27251 94.4506 2.98194 94.4506 3.90634V21.9322H99.8876V24.2539H86.3112Z" fill="#5C08EC"/>
<path fill-rule="evenodd" clip-rule="evenodd" d="M106.374 31.3482H109.205L119.596 8.25963H116.765L111.232 20.6423L105.988 8.25963H103.06L109.366 22.7061H110.299L106.374 31.3482ZM109.893 22.9676L105.968 31.6096H109.373L120 7.99817H116.596L111.238 19.9883L106.16 7.99817H102.661L109.195 22.9676H109.893Z" fill="#5C08EC"/>
<path fill-rule="evenodd" clip-rule="evenodd" d="M86.0504 24.5154V21.6707H91.4873V4.16431C91.4873 3.93589 91.4305 3.8126 91.3627 3.74457C91.2948 3.67653 91.1718 3.61961 90.9439 3.61961H86.6294V0.774933H91.5873C92.5557 0.774933 93.3387 1.03546 93.8951 1.59318C94.4515 2.15091 94.7114 2.93573 94.7114 3.90634V21.6707H100.148V24.5154H86.0504ZM94.4506 21.9322V3.90634C94.4506 2.98194 94.2039 2.27251 93.7106 1.77806C93.2174 1.28362 92.5096 1.03639 91.5873 1.03639H86.8903V3.35815H90.9439C91.4801 3.35815 91.7482 3.62687 91.7482 4.16431V21.9322H86.3112V24.2539H99.8876V21.9322H94.4506Z" fill="#5C08EC"/>
</svg>
